<svg xmlns="http://www.w3.org/2000/svg" width="137.51" height="123.285" viewBox="0 0 137.51 123.285">
  <g id="Grupo_1070051" data-name="Grupo 1070051" transform="translate(-305.829 -4933)">
    <g id="programacion_2_" data-name="programacion (2)" transform="translate(304.829 4929)">
      <path id="Trazado_773232" data-name="Trazado 773232" d="M5,98.835V8.742A4.756,4.756,0,0,1,9.742,4H118.8a4.756,4.756,0,0,1,4.742,4.742V98.835Z" transform="translate(5.483)" fill="#205b75"/>
      <path id="Trazado_773233" data-name="Trazado 773233" d="M138.51,65.709v7.113a2.371,2.371,0,0,1-2.371,2.371H3.371A2.371,2.371,0,0,1,1,72.821V65.709L10.483,42H129.027Z" transform="translate(0 52.093)" fill="#cadbea"/>
      <path id="Trazado_773234" data-name="Trazado 773234" d="M138.51,52v7.113a2.371,2.371,0,0,1-2.371,2.371H3.371A2.371,2.371,0,0,1,1,59.113V52Z" transform="translate(0 65.802)" fill="#abbbcc"/>
      <path id="Trazado_773235" data-name="Trazado 773235" d="M94.991,8h11.214a2.371,2.371,0,0,1,2.371,2.371V76.755a2.371,2.371,0,0,1-2.371,2.371H11.371A2.371,2.371,0,0,1,9,76.755V10.371A2.371,2.371,0,0,1,11.371,8Z" transform="translate(10.967 5.483)" fill="#114559"/>
      <path id="Trazado_773236" data-name="Trazado 773236" d="M19,58.854l4.147-10.363A2.371,2.371,0,0,1,25.347,47H64.812a2.371,2.371,0,0,1,2.2,1.491l4.147,10.363Z" transform="translate(24.676 58.947)" fill="#e1eaf4"/>
      <g id="Grupo_1046182" data-name="Grupo 1046182" transform="translate(27.08 22.967)">
        <path id="Trazado_773237" data-name="Trazado 773237" d="M19.112,26.225a2.371,2.371,0,0,0,1.676-4.047l-3.066-3.066,3.066-3.066a2.371,2.371,0,1,0-3.353-3.353l-4.741,4.742a2.371,2.371,0,0,0,0,3.352l4.742,4.742a2.371,2.371,0,0,0,1.676.695Z" transform="translate(-12 -12)" fill="#fff"/>
        <path id="Trazado_773238" data-name="Trazado 773238" d="M24.695,25.531a2.371,2.371,0,0,0,3.352,0l4.742-4.742a2.371,2.371,0,0,0,0-3.352l-4.742-4.742a2.371,2.371,0,1,0-3.353,3.353l3.066,3.065-3.066,3.066A2.371,2.371,0,0,0,24.695,25.531Z" transform="translate(4.45 -12)" fill="#fff"/>
        <path id="Trazado_773239" data-name="Trazado 773239" d="M19.312,25.982a2.371,2.371,0,0,0,3.182-1.062l4.742-9.483a2.372,2.372,0,1,0-4.244-2.12L18.25,22.8a2.371,2.371,0,0,0,1.062,3.182Z" transform="translate(-3.776 -11.994)" fill="#fff"/>
      </g>
      <path id="Trazado_773240" data-name="Trazado 773240" d="M24.854,22.371A2.371,2.371,0,0,0,22.483,20H15.371a2.371,2.371,0,1,0,0,4.742h7.113A2.371,2.371,0,0,0,24.854,22.371Z" transform="translate(16.45 21.934)" fill="#e5bb33"/>
      <path id="Trazado_773241" data-name="Trazado 773241" d="M20,22.371a2.371,2.371,0,0,0,2.371,2.371H41.338a2.371,2.371,0,1,0,0-4.742H22.371A2.371,2.371,0,0,0,20,22.371Z" transform="translate(26.046 21.934)" fill="#eb6374"/>
      <path id="Trazado_773242" data-name="Trazado 773242" d="M38.709,26.371A2.371,2.371,0,0,0,36.338,24H17.371a2.371,2.371,0,1,0,0,4.742H36.338A2.371,2.371,0,0,0,38.709,26.371Z" transform="translate(19.192 27.417)" fill="#e5bb33"/>
      <path id="Trazado_773243" data-name="Trazado 773243" d="M17.371,28a2.371,2.371,0,0,0,0,4.742H29.225a2.371,2.371,0,1,0,0-4.742Z" transform="translate(19.192 32.901)" fill="#e5bb33"/>
      <path id="Trazado_773244" data-name="Trazado 773244" d="M42.371,32.742h7.113a2.371,2.371,0,0,0,0-4.742H42.371a2.371,2.371,0,0,0,0,4.742Z" transform="translate(53.464 32.901)" fill="#82ecff"/>
      <path id="Trazado_773245" data-name="Trazado 773245" d="M24,30.371a2.371,2.371,0,0,0,2.371,2.371h28.45a2.371,2.371,0,1,0,0-4.742H26.371A2.371,2.371,0,0,0,24,30.371Z" transform="translate(31.53 32.901)" fill="#eb6374"/>
      <path id="Trazado_773246" data-name="Trazado 773246" d="M22.113,32H17.371a2.371,2.371,0,0,0,0,4.742h4.742a2.371,2.371,0,1,0,0-4.742Z" transform="translate(19.192 38.384)" fill="#e5bb33"/>
      <path id="Trazado_773247" data-name="Trazado 773247" d="M60.45,32H34.371a2.371,2.371,0,0,0,0,4.742H60.45a2.371,2.371,0,0,0,0-4.742Z" transform="translate(42.497 38.384)" fill="#82ecff"/>
      <path id="Trazado_773248" data-name="Trazado 773248" d="M39.967,32h-16.6a2.371,2.371,0,1,0,0,4.742h16.6a2.371,2.371,0,1,0,0-4.742Z" transform="translate(27.417 38.384)" fill="#eb6374"/>
    </g>
  </g>
</svg>
