<svg xmlns="http://www.w3.org/2000/svg" width="1049.5" height="113.824" viewBox="0 0 1049.5 113.824">
  <g id="Grupo_1046008" data-name="Grupo 1046008" transform="translate(-286.5 -2124)">
    <line id="Línea_1980" data-name="Línea 1980" x2="1030" transform="translate(286.5 2168)" fill="none" stroke="#ff6148" stroke-width="2" stroke-dasharray="6"/>
    <g id="Elipse_6125" data-name="Elipse 6125" transform="translate(402 2155)" fill="#fff" stroke="#ff6148" stroke-width="2">
      <circle cx="12" cy="12" r="12" stroke="none"/>
      <circle cx="12" cy="12" r="11" fill="none"/>
    </g>
    <g id="Elipse_6126" data-name="Elipse 6126" transform="translate(692 2155)" fill="#fff" stroke="#ff6148" stroke-width="2">
      <circle cx="12" cy="12" r="12" stroke="none"/>
      <circle cx="12" cy="12" r="11" fill="none"/>
    </g>
    <g id="Elipse_6127" data-name="Elipse 6127" transform="translate(974 2155)" fill="#fff" stroke="#ff6148" stroke-width="2">
      <circle cx="12" cy="12" r="12" stroke="none"/>
      <circle cx="12" cy="12" r="11" fill="none"/>
    </g>
    <g id="Elipse_6128" data-name="Elipse 6128" transform="translate(1204 2155)" fill="#fff" stroke="#ff6148" stroke-width="2">
      <circle cx="12" cy="12" r="12" stroke="none"/>
      <circle cx="12" cy="12" r="11" fill="none"/>
    </g>
    <g id="control-de-calidad" transform="translate(391 2183)">
      <g id="Grupo_1046007" data-name="Grupo 1046007">
        <path id="Trazado_772900" data-name="Trazado 772900" d="M33.408,93.4H2.57A2.573,2.573,0,0,1,0,90.831V50.57A2.573,2.573,0,0,1,2.57,48H33.408a2.573,2.573,0,0,1,2.57,2.57V90.831A2.573,2.573,0,0,1,33.408,93.4ZM2.57,48.857A1.715,1.715,0,0,0,.857,50.57V90.831A1.715,1.715,0,0,0,2.57,92.545H33.408a1.715,1.715,0,0,0,1.713-1.713V50.57a1.715,1.715,0,0,0-1.713-1.713Zm0,0" transform="translate(0 -42.86)" fill="#263238"/>
        <path id="Trazado_772901" data-name="Trazado 772901" d="M66.265,133.4H34.57a2.573,2.573,0,0,1-2.57-2.57V130.4a.428.428,0,1,1,.857,0v.428a1.715,1.715,0,0,0,1.713,1.713h31.7a1.715,1.715,0,0,0,1.713-1.713V90.57a1.715,1.715,0,0,0-1.713-1.713h-.428a.428.428,0,0,1,0-.857h.428a2.573,2.573,0,0,1,2.57,2.57v40.261A2.573,2.573,0,0,1,66.265,133.4Zm0,0" transform="translate(-28.573 -78.577)" fill="#263238"/>
        <path id="Trazado_772902" data-name="Trazado 772902" d="M351.855,16.857h-3.426a.428.428,0,1,1,0-.857h3.426a.428.428,0,1,1,0,.857Zm0,0" transform="translate(-310.737 -14.287)" fill="#263238"/>
        <path id="Trazado_772903" data-name="Trazado 772903" d="M364.428,4.283A.429.429,0,0,1,364,3.855V.428a.428.428,0,0,1,.857,0V3.855A.429.429,0,0,1,364.428,4.283Zm0,0" transform="translate(-325.023)" fill="#263238"/>
        <path id="Trazado_772904" data-name="Trazado 772904" d="M395.855,60.857h-3.427a.428.428,0,1,1,0-.857h3.427a.428.428,0,1,1,0,.857Zm0,0" transform="translate(-350.025 -53.575)" fill="#263238"/>
        <path id="Trazado_772905" data-name="Trazado 772905" d="M408.428,48.283a.429.429,0,0,1-.428-.428V44.428a.428.428,0,0,1,.857,0v3.427A.429.429,0,0,1,408.428,48.283Zm0,0" transform="translate(-364.312 -39.289)" fill="#263238"/>
        <path id="Trazado_772906" data-name="Trazado 772906" d="M170.051,120.857H155.917a.428.428,0,1,1,0-.857h14.134a.428.428,0,1,1,0,.857Zm0,0" transform="translate(-138.839 -107.151)" fill="#263238"/>
        <path id="Trazado_772907" data-name="Trazado 772907" d="M165.768,160.857h-9.851a.428.428,0,0,1,0-.857h9.851a.428.428,0,1,1,0,.857Zm0,0" transform="translate(-138.839 -142.867)" fill="#263238"/>
        <path id="Trazado_772908" data-name="Trazado 772908" d="M170.051,232.857H155.917a.428.428,0,0,1,0-.857h14.134a.428.428,0,0,1,0,.857Zm0,0" transform="translate(-138.839 -207.158)" fill="#263238"/>
        <path id="Trazado_772909" data-name="Trazado 772909" d="M165.768,272.857h-9.851a.428.428,0,1,1,0-.857h9.851a.428.428,0,1,1,0,.857Zm0,0" transform="translate(-138.839 -242.875)" fill="#263238"/>
        <path id="Trazado_772910" data-name="Trazado 772910" d="M408.428,450.57a.429.429,0,0,1-.428-.428v-1.713a.428.428,0,0,1,.857,0v1.713A.429.429,0,0,1,408.428,450.57Zm0,0" transform="translate(-364.312 -400.029)" fill="#263238"/>
        <path id="Trazado_772911" data-name="Trazado 772911" d="M408.428,304.276a.429.429,0,0,1-.428-.428V288.428a.428.428,0,0,1,.857,0v15.419A.429.429,0,0,1,408.428,304.276Zm0,0" transform="translate(-364.312 -257.161)" fill="#263238"/>
      </g>
      <path id="Trazado_772912" data-name="Trazado 772912" d="M54.341,115.71h-6a.857.857,0,0,1-.857-.857v-6a.857.857,0,0,1,.857-.857h6a.857.857,0,0,1,.857.857v6A.857.857,0,0,1,54.341,115.71Zm0,0" transform="translate(-42.403 -96.436)" fill="#ff6148"/>
      <path id="Trazado_772913" data-name="Trazado 772913" d="M50.77,112.566h-6a1.286,1.286,0,0,1-1.285-1.285v-6A1.286,1.286,0,0,1,44.773,104h6a1.286,1.286,0,0,1,1.285,1.285v6A1.286,1.286,0,0,1,50.77,112.566Zm-6-7.71a.429.429,0,0,0-.428.428v6a.429.429,0,0,0,.428.428h6a.429.429,0,0,0,.428-.428v-6a.429.429,0,0,0-.428-.428Zm0,0" transform="translate(-38.832 -92.864)" fill="#263238"/>
      <path id="Trazado_772914" data-name="Trazado 772914" d="M65.276,109.581a.43.43,0,0,1-.3-.125l-1.817-1.817a.428.428,0,0,1,.606-.606l1.515,1.515,4.408-4.408a.428.428,0,0,1,.606.606l-4.711,4.711A.429.429,0,0,1,65.276,109.581Zm0,0" transform="translate(-56.281 -92.877)" fill="#263238"/>
      <path id="Trazado_772915" data-name="Trazado 772915" d="M54.341,227.71h-6a.857.857,0,0,1-.857-.857v-6a.857.857,0,0,1,.857-.857h6a.857.857,0,0,1,.857.857v6A.857.857,0,0,1,54.341,227.71Zm0,0" transform="translate(-42.403 -196.443)" fill="#ff6148"/>
      <path id="Trazado_772916" data-name="Trazado 772916" d="M50.77,224.566h-6a1.286,1.286,0,0,1-1.285-1.285v-6A1.286,1.286,0,0,1,44.773,216h6a1.286,1.286,0,0,1,1.285,1.285v6A1.286,1.286,0,0,1,50.77,224.566Zm-6-7.71a.429.429,0,0,0-.428.428v6a.429.429,0,0,0,.428.428h6a.429.429,0,0,0,.428-.428v-6a.429.429,0,0,0-.428-.428Zm0,0" transform="translate(-38.832 -192.871)" fill="#263238"/>
      <path id="Trazado_772917" data-name="Trazado 772917" d="M65.276,221.581a.43.43,0,0,1-.3-.125l-1.817-1.817a.428.428,0,1,1,.606-.606l1.515,1.515,4.408-4.408a.428.428,0,0,1,.606.606l-4.711,4.711A.429.429,0,0,1,65.276,221.581Zm0,0" transform="translate(-56.281 -192.884)" fill="#263238"/>
      <path id="Trazado_772918" data-name="Trazado 772918" d="M170.051,352.857H155.917a.428.428,0,1,1,0-.857h14.134a.428.428,0,0,1,0,.857Zm0,0" transform="translate(-138.839 -314.308)" fill="#263238"/>
      <path id="Trazado_772919" data-name="Trazado 772919" d="M165.768,392.857h-9.851a.428.428,0,0,1,0-.857h9.851a.428.428,0,1,1,0,.857Zm0,0" transform="translate(-138.839 -350.025)" fill="#263238"/>
      <path id="Trazado_772920" data-name="Trazado 772920" d="M54.341,347.71h-6a.857.857,0,0,1-.857-.857v-6a.857.857,0,0,1,.857-.857h6a.857.857,0,0,1,.857.857v6A.857.857,0,0,1,54.341,347.71Zm0,0" transform="translate(-42.403 -303.593)" fill="#ff6148"/>
      <path id="Trazado_772921" data-name="Trazado 772921" d="M50.77,344.566h-6a1.286,1.286,0,0,1-1.285-1.285v-6A1.286,1.286,0,0,1,44.773,336h6a1.286,1.286,0,0,1,1.285,1.285v6A1.286,1.286,0,0,1,50.77,344.566Zm-6-7.71a.429.429,0,0,0-.428.428v6a.429.429,0,0,0,.428.428h6a.429.429,0,0,0,.428-.428v-6a.429.429,0,0,0-.428-.428Zm0,0" transform="translate(-38.832 -300.022)" fill="#263238"/>
      <path id="Trazado_772922" data-name="Trazado 772922" d="M65.276,341.581a.43.43,0,0,1-.3-.125l-1.817-1.817a.428.428,0,1,1,.606-.606l1.515,1.515,4.408-4.408a.428.428,0,1,1,.606.606l-4.711,4.711A.429.429,0,0,1,65.276,341.581Zm0,0" transform="translate(-56.281 -300.035)" fill="#263238"/>
    </g>
    <g id="control-de-calidad-2" data-name="control-de-calidad" transform="translate(680 2183)">
      <g id="Grupo_1046007-2" data-name="Grupo 1046007">
        <path id="Trazado_772900-2" data-name="Trazado 772900" d="M33.408,93.4H2.57A2.573,2.573,0,0,1,0,90.831V50.57A2.573,2.573,0,0,1,2.57,48H33.408a2.573,2.573,0,0,1,2.57,2.57V90.831A2.573,2.573,0,0,1,33.408,93.4ZM2.57,48.857A1.715,1.715,0,0,0,.857,50.57V90.831A1.715,1.715,0,0,0,2.57,92.545H33.408a1.715,1.715,0,0,0,1.713-1.713V50.57a1.715,1.715,0,0,0-1.713-1.713Zm0,0" transform="translate(0 -42.86)" fill="#263238"/>
        <path id="Trazado_772901-2" data-name="Trazado 772901" d="M66.265,133.4H34.57a2.573,2.573,0,0,1-2.57-2.57V130.4a.428.428,0,1,1,.857,0v.428a1.715,1.715,0,0,0,1.713,1.713h31.7a1.715,1.715,0,0,0,1.713-1.713V90.57a1.715,1.715,0,0,0-1.713-1.713h-.428a.428.428,0,0,1,0-.857h.428a2.573,2.573,0,0,1,2.57,2.57v40.261A2.573,2.573,0,0,1,66.265,133.4Zm0,0" transform="translate(-28.573 -78.577)" fill="#263238"/>
        <path id="Trazado_772902-2" data-name="Trazado 772902" d="M351.855,16.857h-3.426a.428.428,0,1,1,0-.857h3.426a.428.428,0,1,1,0,.857Zm0,0" transform="translate(-310.737 -14.287)" fill="#263238"/>
        <path id="Trazado_772903-2" data-name="Trazado 772903" d="M364.428,4.283A.429.429,0,0,1,364,3.855V.428a.428.428,0,0,1,.857,0V3.855A.429.429,0,0,1,364.428,4.283Zm0,0" transform="translate(-325.023)" fill="#263238"/>
        <path id="Trazado_772904-2" data-name="Trazado 772904" d="M395.855,60.857h-3.427a.428.428,0,1,1,0-.857h3.427a.428.428,0,1,1,0,.857Zm0,0" transform="translate(-350.025 -53.575)" fill="#263238"/>
        <path id="Trazado_772905-2" data-name="Trazado 772905" d="M408.428,48.283a.429.429,0,0,1-.428-.428V44.428a.428.428,0,0,1,.857,0v3.427A.429.429,0,0,1,408.428,48.283Zm0,0" transform="translate(-364.312 -39.289)" fill="#263238"/>
        <path id="Trazado_772906-2" data-name="Trazado 772906" d="M170.051,120.857H155.917a.428.428,0,1,1,0-.857h14.134a.428.428,0,1,1,0,.857Zm0,0" transform="translate(-138.839 -107.151)" fill="#263238"/>
        <path id="Trazado_772907-2" data-name="Trazado 772907" d="M165.768,160.857h-9.851a.428.428,0,0,1,0-.857h9.851a.428.428,0,1,1,0,.857Zm0,0" transform="translate(-138.839 -142.867)" fill="#263238"/>
        <path id="Trazado_772908-2" data-name="Trazado 772908" d="M170.051,232.857H155.917a.428.428,0,0,1,0-.857h14.134a.428.428,0,0,1,0,.857Zm0,0" transform="translate(-138.839 -207.158)" fill="#263238"/>
        <path id="Trazado_772909-2" data-name="Trazado 772909" d="M165.768,272.857h-9.851a.428.428,0,1,1,0-.857h9.851a.428.428,0,1,1,0,.857Zm0,0" transform="translate(-138.839 -242.875)" fill="#263238"/>
        <path id="Trazado_772910-2" data-name="Trazado 772910" d="M408.428,450.57a.429.429,0,0,1-.428-.428v-1.713a.428.428,0,0,1,.857,0v1.713A.429.429,0,0,1,408.428,450.57Zm0,0" transform="translate(-364.312 -400.029)" fill="#263238"/>
        <path id="Trazado_772911-2" data-name="Trazado 772911" d="M408.428,304.276a.429.429,0,0,1-.428-.428V288.428a.428.428,0,0,1,.857,0v15.419A.429.429,0,0,1,408.428,304.276Zm0,0" transform="translate(-364.312 -257.161)" fill="#263238"/>
      </g>
      <path id="Trazado_772912-2" data-name="Trazado 772912" d="M54.341,115.71h-6a.857.857,0,0,1-.857-.857v-6a.857.857,0,0,1,.857-.857h6a.857.857,0,0,1,.857.857v6A.857.857,0,0,1,54.341,115.71Zm0,0" transform="translate(-42.403 -96.436)" fill="#ff6148"/>
      <path id="Trazado_772913-2" data-name="Trazado 772913" d="M50.77,112.566h-6a1.286,1.286,0,0,1-1.285-1.285v-6A1.286,1.286,0,0,1,44.773,104h6a1.286,1.286,0,0,1,1.285,1.285v6A1.286,1.286,0,0,1,50.77,112.566Zm-6-7.71a.429.429,0,0,0-.428.428v6a.429.429,0,0,0,.428.428h6a.429.429,0,0,0,.428-.428v-6a.429.429,0,0,0-.428-.428Zm0,0" transform="translate(-38.832 -92.864)" fill="#263238"/>
      <path id="Trazado_772914-2" data-name="Trazado 772914" d="M65.276,109.581a.43.43,0,0,1-.3-.125l-1.817-1.817a.428.428,0,0,1,.606-.606l1.515,1.515,4.408-4.408a.428.428,0,0,1,.606.606l-4.711,4.711A.429.429,0,0,1,65.276,109.581Zm0,0" transform="translate(-56.281 -92.877)" fill="#263238"/>
      <path id="Trazado_772915-2" data-name="Trazado 772915" d="M54.341,227.71h-6a.857.857,0,0,1-.857-.857v-6a.857.857,0,0,1,.857-.857h6a.857.857,0,0,1,.857.857v6A.857.857,0,0,1,54.341,227.71Zm0,0" transform="translate(-42.403 -196.443)" fill="#ff6148"/>
      <path id="Trazado_772916-2" data-name="Trazado 772916" d="M50.77,224.566h-6a1.286,1.286,0,0,1-1.285-1.285v-6A1.286,1.286,0,0,1,44.773,216h6a1.286,1.286,0,0,1,1.285,1.285v6A1.286,1.286,0,0,1,50.77,224.566Zm-6-7.71a.429.429,0,0,0-.428.428v6a.429.429,0,0,0,.428.428h6a.429.429,0,0,0,.428-.428v-6a.429.429,0,0,0-.428-.428Zm0,0" transform="translate(-38.832 -192.871)" fill="#263238"/>
      <path id="Trazado_772917-2" data-name="Trazado 772917" d="M65.276,221.581a.43.43,0,0,1-.3-.125l-1.817-1.817a.428.428,0,1,1,.606-.606l1.515,1.515,4.408-4.408a.428.428,0,0,1,.606.606l-4.711,4.711A.429.429,0,0,1,65.276,221.581Zm0,0" transform="translate(-56.281 -192.884)" fill="#263238"/>
      <path id="Trazado_772918-2" data-name="Trazado 772918" d="M170.051,352.857H155.917a.428.428,0,1,1,0-.857h14.134a.428.428,0,0,1,0,.857Zm0,0" transform="translate(-138.839 -314.308)" fill="#263238"/>
      <path id="Trazado_772919-2" data-name="Trazado 772919" d="M165.768,392.857h-9.851a.428.428,0,0,1,0-.857h9.851a.428.428,0,1,1,0,.857Zm0,0" transform="translate(-138.839 -350.025)" fill="#263238"/>
      <path id="Trazado_772920-2" data-name="Trazado 772920" d="M54.341,347.71h-6a.857.857,0,0,1-.857-.857v-6a.857.857,0,0,1,.857-.857h6a.857.857,0,0,1,.857.857v6A.857.857,0,0,1,54.341,347.71Zm0,0" transform="translate(-42.403 -303.593)" fill="#ff6148"/>
      <path id="Trazado_772921-2" data-name="Trazado 772921" d="M50.77,344.566h-6a1.286,1.286,0,0,1-1.285-1.285v-6A1.286,1.286,0,0,1,44.773,336h6a1.286,1.286,0,0,1,1.285,1.285v6A1.286,1.286,0,0,1,50.77,344.566Zm-6-7.71a.429.429,0,0,0-.428.428v6a.429.429,0,0,0,.428.428h6a.429.429,0,0,0,.428-.428v-6a.429.429,0,0,0-.428-.428Zm0,0" transform="translate(-38.832 -300.022)" fill="#263238"/>
      <path id="Trazado_772922-2" data-name="Trazado 772922" d="M65.276,341.581a.43.43,0,0,1-.3-.125l-1.817-1.817a.428.428,0,1,1,.606-.606l1.515,1.515,4.408-4.408a.428.428,0,1,1,.606.606l-4.711,4.711A.429.429,0,0,1,65.276,341.581Zm0,0" transform="translate(-56.281 -300.035)" fill="#263238"/>
    </g>
    <g id="control-de-calidad-3" data-name="control-de-calidad" transform="translate(962 2183)">
      <g id="Grupo_1046007-3" data-name="Grupo 1046007">
        <path id="Trazado_772900-3" data-name="Trazado 772900" d="M33.408,93.4H2.57A2.573,2.573,0,0,1,0,90.831V50.57A2.573,2.573,0,0,1,2.57,48H33.408a2.573,2.573,0,0,1,2.57,2.57V90.831A2.573,2.573,0,0,1,33.408,93.4ZM2.57,48.857A1.715,1.715,0,0,0,.857,50.57V90.831A1.715,1.715,0,0,0,2.57,92.545H33.408a1.715,1.715,0,0,0,1.713-1.713V50.57a1.715,1.715,0,0,0-1.713-1.713Zm0,0" transform="translate(0 -42.86)" fill="#263238"/>
        <path id="Trazado_772901-3" data-name="Trazado 772901" d="M66.265,133.4H34.57a2.573,2.573,0,0,1-2.57-2.57V130.4a.428.428,0,1,1,.857,0v.428a1.715,1.715,0,0,0,1.713,1.713h31.7a1.715,1.715,0,0,0,1.713-1.713V90.57a1.715,1.715,0,0,0-1.713-1.713h-.428a.428.428,0,0,1,0-.857h.428a2.573,2.573,0,0,1,2.57,2.57v40.261A2.573,2.573,0,0,1,66.265,133.4Zm0,0" transform="translate(-28.573 -78.577)" fill="#263238"/>
        <path id="Trazado_772902-3" data-name="Trazado 772902" d="M351.855,16.857h-3.426a.428.428,0,1,1,0-.857h3.426a.428.428,0,1,1,0,.857Zm0,0" transform="translate(-310.737 -14.287)" fill="#263238"/>
        <path id="Trazado_772903-3" data-name="Trazado 772903" d="M364.428,4.283A.429.429,0,0,1,364,3.855V.428a.428.428,0,0,1,.857,0V3.855A.429.429,0,0,1,364.428,4.283Zm0,0" transform="translate(-325.023)" fill="#263238"/>
        <path id="Trazado_772904-3" data-name="Trazado 772904" d="M395.855,60.857h-3.427a.428.428,0,1,1,0-.857h3.427a.428.428,0,1,1,0,.857Zm0,0" transform="translate(-350.025 -53.575)" fill="#263238"/>
        <path id="Trazado_772905-3" data-name="Trazado 772905" d="M408.428,48.283a.429.429,0,0,1-.428-.428V44.428a.428.428,0,0,1,.857,0v3.427A.429.429,0,0,1,408.428,48.283Zm0,0" transform="translate(-364.312 -39.289)" fill="#263238"/>
        <path id="Trazado_772906-3" data-name="Trazado 772906" d="M170.051,120.857H155.917a.428.428,0,1,1,0-.857h14.134a.428.428,0,1,1,0,.857Zm0,0" transform="translate(-138.839 -107.151)" fill="#263238"/>
        <path id="Trazado_772907-3" data-name="Trazado 772907" d="M165.768,160.857h-9.851a.428.428,0,0,1,0-.857h9.851a.428.428,0,1,1,0,.857Zm0,0" transform="translate(-138.839 -142.867)" fill="#263238"/>
        <path id="Trazado_772908-3" data-name="Trazado 772908" d="M170.051,232.857H155.917a.428.428,0,0,1,0-.857h14.134a.428.428,0,0,1,0,.857Zm0,0" transform="translate(-138.839 -207.158)" fill="#263238"/>
        <path id="Trazado_772909-3" data-name="Trazado 772909" d="M165.768,272.857h-9.851a.428.428,0,1,1,0-.857h9.851a.428.428,0,1,1,0,.857Zm0,0" transform="translate(-138.839 -242.875)" fill="#263238"/>
        <path id="Trazado_772910-3" data-name="Trazado 772910" d="M408.428,450.57a.429.429,0,0,1-.428-.428v-1.713a.428.428,0,0,1,.857,0v1.713A.429.429,0,0,1,408.428,450.57Zm0,0" transform="translate(-364.312 -400.029)" fill="#263238"/>
        <path id="Trazado_772911-3" data-name="Trazado 772911" d="M408.428,304.276a.429.429,0,0,1-.428-.428V288.428a.428.428,0,0,1,.857,0v15.419A.429.429,0,0,1,408.428,304.276Zm0,0" transform="translate(-364.312 -257.161)" fill="#263238"/>
      </g>
      <path id="Trazado_772912-3" data-name="Trazado 772912" d="M54.341,115.71h-6a.857.857,0,0,1-.857-.857v-6a.857.857,0,0,1,.857-.857h6a.857.857,0,0,1,.857.857v6A.857.857,0,0,1,54.341,115.71Zm0,0" transform="translate(-42.403 -96.436)" fill="#ff6148"/>
      <path id="Trazado_772913-3" data-name="Trazado 772913" d="M50.77,112.566h-6a1.286,1.286,0,0,1-1.285-1.285v-6A1.286,1.286,0,0,1,44.773,104h6a1.286,1.286,0,0,1,1.285,1.285v6A1.286,1.286,0,0,1,50.77,112.566Zm-6-7.71a.429.429,0,0,0-.428.428v6a.429.429,0,0,0,.428.428h6a.429.429,0,0,0,.428-.428v-6a.429.429,0,0,0-.428-.428Zm0,0" transform="translate(-38.832 -92.864)" fill="#263238"/>
      <path id="Trazado_772914-3" data-name="Trazado 772914" d="M65.276,109.581a.43.43,0,0,1-.3-.125l-1.817-1.817a.428.428,0,0,1,.606-.606l1.515,1.515,4.408-4.408a.428.428,0,0,1,.606.606l-4.711,4.711A.429.429,0,0,1,65.276,109.581Zm0,0" transform="translate(-56.281 -92.877)" fill="#263238"/>
      <path id="Trazado_772915-3" data-name="Trazado 772915" d="M54.341,227.71h-6a.857.857,0,0,1-.857-.857v-6a.857.857,0,0,1,.857-.857h6a.857.857,0,0,1,.857.857v6A.857.857,0,0,1,54.341,227.71Zm0,0" transform="translate(-42.403 -196.443)" fill="#ff6148"/>
      <path id="Trazado_772916-3" data-name="Trazado 772916" d="M50.77,224.566h-6a1.286,1.286,0,0,1-1.285-1.285v-6A1.286,1.286,0,0,1,44.773,216h6a1.286,1.286,0,0,1,1.285,1.285v6A1.286,1.286,0,0,1,50.77,224.566Zm-6-7.71a.429.429,0,0,0-.428.428v6a.429.429,0,0,0,.428.428h6a.429.429,0,0,0,.428-.428v-6a.429.429,0,0,0-.428-.428Zm0,0" transform="translate(-38.832 -192.871)" fill="#263238"/>
      <path id="Trazado_772917-3" data-name="Trazado 772917" d="M65.276,221.581a.43.43,0,0,1-.3-.125l-1.817-1.817a.428.428,0,1,1,.606-.606l1.515,1.515,4.408-4.408a.428.428,0,0,1,.606.606l-4.711,4.711A.429.429,0,0,1,65.276,221.581Zm0,0" transform="translate(-56.281 -192.884)" fill="#263238"/>
      <path id="Trazado_772918-3" data-name="Trazado 772918" d="M170.051,352.857H155.917a.428.428,0,1,1,0-.857h14.134a.428.428,0,0,1,0,.857Zm0,0" transform="translate(-138.839 -314.308)" fill="#263238"/>
      <path id="Trazado_772919-3" data-name="Trazado 772919" d="M165.768,392.857h-9.851a.428.428,0,0,1,0-.857h9.851a.428.428,0,1,1,0,.857Zm0,0" transform="translate(-138.839 -350.025)" fill="#263238"/>
      <path id="Trazado_772920-3" data-name="Trazado 772920" d="M54.341,347.71h-6a.857.857,0,0,1-.857-.857v-6a.857.857,0,0,1,.857-.857h6a.857.857,0,0,1,.857.857v6A.857.857,0,0,1,54.341,347.71Zm0,0" transform="translate(-42.403 -303.593)" fill="#ff6148"/>
      <path id="Trazado_772921-3" data-name="Trazado 772921" d="M50.77,344.566h-6a1.286,1.286,0,0,1-1.285-1.285v-6A1.286,1.286,0,0,1,44.773,336h6a1.286,1.286,0,0,1,1.285,1.285v6A1.286,1.286,0,0,1,50.77,344.566Zm-6-7.71a.429.429,0,0,0-.428.428v6a.429.429,0,0,0,.428.428h6a.429.429,0,0,0,.428-.428v-6a.429.429,0,0,0-.428-.428Zm0,0" transform="translate(-38.832 -300.022)" fill="#263238"/>
      <path id="Trazado_772922-3" data-name="Trazado 772922" d="M65.276,341.581a.43.43,0,0,1-.3-.125l-1.817-1.817a.428.428,0,1,1,.606-.606l1.515,1.515,4.408-4.408a.428.428,0,1,1,.606.606l-4.711,4.711A.429.429,0,0,1,65.276,341.581Zm0,0" transform="translate(-56.281 -300.035)" fill="#263238"/>
    </g>
    <g id="control-de-calidad-4" data-name="control-de-calidad" transform="translate(1192 2183)">
      <g id="Grupo_1046007-4" data-name="Grupo 1046007">
        <path id="Trazado_772900-4" data-name="Trazado 772900" d="M33.408,93.4H2.57A2.573,2.573,0,0,1,0,90.831V50.57A2.573,2.573,0,0,1,2.57,48H33.408a2.573,2.573,0,0,1,2.57,2.57V90.831A2.573,2.573,0,0,1,33.408,93.4ZM2.57,48.857A1.715,1.715,0,0,0,.857,50.57V90.831A1.715,1.715,0,0,0,2.57,92.545H33.408a1.715,1.715,0,0,0,1.713-1.713V50.57a1.715,1.715,0,0,0-1.713-1.713Zm0,0" transform="translate(0 -42.86)" fill="#263238"/>
        <path id="Trazado_772901-4" data-name="Trazado 772901" d="M66.265,133.4H34.57a2.573,2.573,0,0,1-2.57-2.57V130.4a.428.428,0,1,1,.857,0v.428a1.715,1.715,0,0,0,1.713,1.713h31.7a1.715,1.715,0,0,0,1.713-1.713V90.57a1.715,1.715,0,0,0-1.713-1.713h-.428a.428.428,0,0,1,0-.857h.428a2.573,2.573,0,0,1,2.57,2.57v40.261A2.573,2.573,0,0,1,66.265,133.4Zm0,0" transform="translate(-28.573 -78.577)" fill="#263238"/>
        <path id="Trazado_772902-4" data-name="Trazado 772902" d="M351.855,16.857h-3.426a.428.428,0,1,1,0-.857h3.426a.428.428,0,1,1,0,.857Zm0,0" transform="translate(-310.737 -14.287)" fill="#263238"/>
        <path id="Trazado_772903-4" data-name="Trazado 772903" d="M364.428,4.283A.429.429,0,0,1,364,3.855V.428a.428.428,0,0,1,.857,0V3.855A.429.429,0,0,1,364.428,4.283Zm0,0" transform="translate(-325.023)" fill="#263238"/>
        <path id="Trazado_772904-4" data-name="Trazado 772904" d="M395.855,60.857h-3.427a.428.428,0,1,1,0-.857h3.427a.428.428,0,1,1,0,.857Zm0,0" transform="translate(-350.025 -53.575)" fill="#263238"/>
        <path id="Trazado_772905-4" data-name="Trazado 772905" d="M408.428,48.283a.429.429,0,0,1-.428-.428V44.428a.428.428,0,0,1,.857,0v3.427A.429.429,0,0,1,408.428,48.283Zm0,0" transform="translate(-364.312 -39.289)" fill="#263238"/>
        <path id="Trazado_772906-4" data-name="Trazado 772906" d="M170.051,120.857H155.917a.428.428,0,1,1,0-.857h14.134a.428.428,0,1,1,0,.857Zm0,0" transform="translate(-138.839 -107.151)" fill="#263238"/>
        <path id="Trazado_772907-4" data-name="Trazado 772907" d="M165.768,160.857h-9.851a.428.428,0,0,1,0-.857h9.851a.428.428,0,1,1,0,.857Zm0,0" transform="translate(-138.839 -142.867)" fill="#263238"/>
        <path id="Trazado_772908-4" data-name="Trazado 772908" d="M170.051,232.857H155.917a.428.428,0,0,1,0-.857h14.134a.428.428,0,0,1,0,.857Zm0,0" transform="translate(-138.839 -207.158)" fill="#263238"/>
        <path id="Trazado_772909-4" data-name="Trazado 772909" d="M165.768,272.857h-9.851a.428.428,0,1,1,0-.857h9.851a.428.428,0,1,1,0,.857Zm0,0" transform="translate(-138.839 -242.875)" fill="#263238"/>
        <path id="Trazado_772910-4" data-name="Trazado 772910" d="M408.428,450.57a.429.429,0,0,1-.428-.428v-1.713a.428.428,0,0,1,.857,0v1.713A.429.429,0,0,1,408.428,450.57Zm0,0" transform="translate(-364.312 -400.029)" fill="#263238"/>
        <path id="Trazado_772911-4" data-name="Trazado 772911" d="M408.428,304.276a.429.429,0,0,1-.428-.428V288.428a.428.428,0,0,1,.857,0v15.419A.429.429,0,0,1,408.428,304.276Zm0,0" transform="translate(-364.312 -257.161)" fill="#263238"/>
      </g>
      <path id="Trazado_772912-4" data-name="Trazado 772912" d="M54.341,115.71h-6a.857.857,0,0,1-.857-.857v-6a.857.857,0,0,1,.857-.857h6a.857.857,0,0,1,.857.857v6A.857.857,0,0,1,54.341,115.71Zm0,0" transform="translate(-42.403 -96.436)" fill="#ff6148"/>
      <path id="Trazado_772913-4" data-name="Trazado 772913" d="M50.77,112.566h-6a1.286,1.286,0,0,1-1.285-1.285v-6A1.286,1.286,0,0,1,44.773,104h6a1.286,1.286,0,0,1,1.285,1.285v6A1.286,1.286,0,0,1,50.77,112.566Zm-6-7.71a.429.429,0,0,0-.428.428v6a.429.429,0,0,0,.428.428h6a.429.429,0,0,0,.428-.428v-6a.429.429,0,0,0-.428-.428Zm0,0" transform="translate(-38.832 -92.864)" fill="#263238"/>
      <path id="Trazado_772914-4" data-name="Trazado 772914" d="M65.276,109.581a.43.43,0,0,1-.3-.125l-1.817-1.817a.428.428,0,0,1,.606-.606l1.515,1.515,4.408-4.408a.428.428,0,0,1,.606.606l-4.711,4.711A.429.429,0,0,1,65.276,109.581Zm0,0" transform="translate(-56.281 -92.877)" fill="#263238"/>
      <path id="Trazado_772915-4" data-name="Trazado 772915" d="M54.341,227.71h-6a.857.857,0,0,1-.857-.857v-6a.857.857,0,0,1,.857-.857h6a.857.857,0,0,1,.857.857v6A.857.857,0,0,1,54.341,227.71Zm0,0" transform="translate(-42.403 -196.443)" fill="#ff6148"/>
      <path id="Trazado_772916-4" data-name="Trazado 772916" d="M50.77,224.566h-6a1.286,1.286,0,0,1-1.285-1.285v-6A1.286,1.286,0,0,1,44.773,216h6a1.286,1.286,0,0,1,1.285,1.285v6A1.286,1.286,0,0,1,50.77,224.566Zm-6-7.71a.429.429,0,0,0-.428.428v6a.429.429,0,0,0,.428.428h6a.429.429,0,0,0,.428-.428v-6a.429.429,0,0,0-.428-.428Zm0,0" transform="translate(-38.832 -192.871)" fill="#263238"/>
      <path id="Trazado_772917-4" data-name="Trazado 772917" d="M65.276,221.581a.43.43,0,0,1-.3-.125l-1.817-1.817a.428.428,0,1,1,.606-.606l1.515,1.515,4.408-4.408a.428.428,0,0,1,.606.606l-4.711,4.711A.429.429,0,0,1,65.276,221.581Zm0,0" transform="translate(-56.281 -192.884)" fill="#263238"/>
      <path id="Trazado_772918-4" data-name="Trazado 772918" d="M170.051,352.857H155.917a.428.428,0,1,1,0-.857h14.134a.428.428,0,0,1,0,.857Zm0,0" transform="translate(-138.839 -314.308)" fill="#263238"/>
      <path id="Trazado_772919-4" data-name="Trazado 772919" d="M165.768,392.857h-9.851a.428.428,0,0,1,0-.857h9.851a.428.428,0,1,1,0,.857Zm0,0" transform="translate(-138.839 -350.025)" fill="#263238"/>
      <path id="Trazado_772920-4" data-name="Trazado 772920" d="M54.341,347.71h-6a.857.857,0,0,1-.857-.857v-6a.857.857,0,0,1,.857-.857h6a.857.857,0,0,1,.857.857v6A.857.857,0,0,1,54.341,347.71Zm0,0" transform="translate(-42.403 -303.593)" fill="#ff6148"/>
      <path id="Trazado_772921-4" data-name="Trazado 772921" d="M50.77,344.566h-6a1.286,1.286,0,0,1-1.285-1.285v-6A1.286,1.286,0,0,1,44.773,336h6a1.286,1.286,0,0,1,1.285,1.285v6A1.286,1.286,0,0,1,50.77,344.566Zm-6-7.71a.429.429,0,0,0-.428.428v6a.429.429,0,0,0,.428.428h6a.429.429,0,0,0,.428-.428v-6a.429.429,0,0,0-.428-.428Zm0,0" transform="translate(-38.832 -300.022)" fill="#263238"/>
      <path id="Trazado_772922-4" data-name="Trazado 772922" d="M65.276,341.581a.43.43,0,0,1-.3-.125l-1.817-1.817a.428.428,0,1,1,.606-.606l1.515,1.515,4.408-4.408a.428.428,0,1,1,.606.606l-4.711,4.711A.429.429,0,0,1,65.276,341.581Zm0,0" transform="translate(-56.281 -300.035)" fill="#263238"/>
    </g>
    <g id="Polígono_7" data-name="Polígono 7" transform="translate(1336 2124) rotate(90)" fill="#fff" stroke-dasharray="6">
      <path d="M43,0,86,76H0Z" stroke="none"/>
      <path d="M 43 0 C 43 0 43.03521728515625 0.0622406005859375 43.09797668457031 0.1731719970703125 L 43.09855270385742 0.1741867065429688 C 43.1006965637207 0.177978515625 43.10287857055664 0.1818313598632812 43.10508728027344 0.1857376098632812 L 43.10527801513672 0.1860733032226562 C 43.10745239257812 0.1899185180664062 43.10963439941406 0.1937713623046875 43.11186981201172 0.197723388671875 L 43.11271286010742 0.19921875 C 43.11316299438477 0.20001220703125 43.1135368347168 0.2006683349609375 43.11398696899414 0.2014694213867188 L 43.1140251159668 0.2015380859375 C 43.11458969116211 0.2025299072265625 43.11513519287109 0.2034988403320312 43.11570358276367 0.204498291015625 L 43.11593627929688 0.2049102783203125 C 43.11703491210938 0.2068557739257812 43.11812591552734 0.2087783813476562 43.11923599243164 0.2107467651367188 L 43.12004089355469 0.2121658325195312 C 43.12038803100586 0.2127761840820312 43.12071990966797 0.2133636474609375 43.12106704711914 0.2139816284179688 L 43.12152481079102 0.21478271484375 C 43.12187194824219 0.2154006958007812 43.12228393554688 0.2161331176757812 43.12263488769531 0.2167510986328125 L 43.12385940551758 0.2189102172851562 C 43.12401580810547 0.2191848754882812 43.12421798706055 0.2195510864257812 43.12437438964844 0.2198257446289062 L 43.12787628173828 0.22601318359375 C 43.12791442871094 0.2260818481445312 43.12794494628906 0.22613525390625 43.12798690795898 0.2262039184570312 L 43.13328552246094 0.2355728149414062 C 43.13348770141602 0.235931396484375 43.13368225097656 0.2362747192382812 43.13388442993164 0.23663330078125 L 43.13504409790039 0.238677978515625 C 43.13727188110352 0.2426223754882812 43.13949203491211 0.2465438842773438 43.14176940917969 0.2505722045898438 L 43.14335250854492 0.2533645629882812 C 43.14372634887695 0.2540283203125 43.14408874511719 0.254669189453125 43.14446258544922 0.2553329467773438 L 43.14451599121094 0.2554244995117188 C 43.14886093139648 0.2631072998046875 43.15327072143555 0.2708969116210938 43.15779113769531 0.2788848876953125 L 43.16109085083008 0.2847213745117188 C 43.16170501708984 0.2858047485351562 43.162353515625 0.2869491577148438 43.16297149658203 0.2880401611328125 L 43.16315078735352 0.288360595703125 C 43.16447448730469 0.2907028198242188 43.16582489013672 0.2930831909179688 43.16716003417969 0.2954483032226562 L 43.16741180419922 0.2958908081054688 C 43.16995620727539 0.300384521484375 43.17262649536133 0.3051071166992188 43.17521667480469 0.3096847534179688 L 43.1768913269043 0.3126449584960938 C 43.17922210693359 0.3167648315429688 43.18168258666992 0.3211135864257812 43.18405532836914 0.3253021240234375 L 43.18540191650391 0.3276901245117188 C 43.18666076660156 0.3299179077148438 43.18787384033203 0.332061767578125 43.18914413452148 0.3343048095703125 L 43.18945693969727 0.3348541259765625 C 43.19016265869141 0.3361053466796875 43.19091796875 0.3374404907226562 43.19162750244141 0.3386917114257812 L 43.19513320922852 0.3448867797851562 C 43.19770812988281 0.3494415283203125 43.20035171508789 0.3541107177734375 43.20297241210938 0.3587417602539062 L 43.20320129394531 0.3591461181640625 C 43.20601654052734 0.3641204833984375 43.20892333984375 0.3692550659179688 43.21178817749023 0.3743209838867188 L 43.21304321289062 0.3765411376953125 C 43.21443176269531 0.378997802734375 43.21581268310547 0.3814315795898438 43.21720886230469 0.3839035034179688 L 43.2172966003418 0.384063720703125 C 43.21874618530273 0.3866195678710938 43.22016143798828 0.3891220092773438 43.22162246704102 0.3917007446289062 L 43.22285079956055 0.3938827514648438 C 43.2232551574707 0.39459228515625 43.22370147705078 0.3953781127929688 43.22410583496094 0.3960952758789062 L 43.2247428894043 0.397216796875 C 43.22529983520508 0.3982009887695312 43.22592926025391 0.3993148803710938 43.22648620605469 0.4003067016601562 L 43.23490142822266 0.4151763916015625 C 43.23531341552734 0.4159011840820312 43.23582077026367 0.4168014526367188 43.23623275756836 0.4175338745117188 L 43.23727798461914 0.4193801879882812 C 43.23857498168945 0.4216690063476562 43.23991012573242 0.4240264892578125 43.24121475219727 0.42633056640625 L 43.24300384521484 0.4294967651367188 C 43.24405288696289 0.4313507080078125 43.24520111083984 0.433380126953125 43.24625396728516 0.43524169921875 L 43.24734115600586 0.437164306640625 C 43.24802780151367 0.4383773803710938 43.24874114990234 0.43963623046875 43.24942779541016 0.4408493041992188 L 43.25548553466797 0.4515533447265625 C 43.25569915771484 0.451934814453125 43.25579071044922 0.4520950317382812 43.25600433349609 0.4524765014648438 L 45.95460891723633 5.222099304199219 L 44.21391296386719 6.206962585449219 L 43.00000381469727 4.061454772949219 L 40.48483657836914 8.506858825683594 L 38.74413681030273 7.521987915039062 L 39.47626495361328 6.227996826171875 C 39.47650146484375 6.227577209472656 39.47664260864258 6.227325439453125 39.47688293457031 6.226905822753906 L 39.47964477539062 6.222023010253906 C 39.47988128662109 6.221603393554688 39.48011779785156 6.221183776855469 39.48035430908203 6.22076416015625 L 39.48386383056641 6.214569091796875 C 39.48402404785156 6.214286804199219 39.48396301269531 6.214393615722656 39.4841194152832 6.214111328125 L 39.49904632568359 6.187728881835938 C 39.49920654296875 6.187446594238281 39.49940490722656 6.187095642089844 39.49956512451172 6.186813354492188 L 39.50281143188477 6.181083679199219 C 39.50296783447266 6.180801391601562 39.50309371948242 6.180580139160156 39.50325393676758 6.1802978515625 L 39.50692749023438 6.173797607421875 C 39.50692749023438 6.173797607421875 39.50700759887695 6.173660278320312 39.50700759887695 6.173660278320312 L 39.52932739257812 6.13421630859375 C 39.53086090087891 6.131500244140625 39.53247451782227 6.128646850585938 39.53401184082031 6.125938415527344 L 39.53759384155273 6.119598388671875 C 39.53945541381836 6.116310119628906 39.54138565063477 6.112899780273438 39.54325103759766 6.109603881835938 L 39.54414749145508 6.108016967773438 C 39.54552459716797 6.105583190917969 39.54690933227539 6.103134155273438 39.54829025268555 6.100692749023438 L 39.5565071105957 6.086174011230469 C 39.55707550048828 6.085166931152344 39.5576171875 6.084213256835938 39.55818939208984 6.083206176757812 L 39.56060791015625 6.078926086425781 C 39.56118011474609 6.077919006347656 39.56164932250977 6.07708740234375 39.56222152709961 6.076072692871094 L 39.56442642211914 6.072174072265625 C 39.56499862670898 6.071159362792969 39.56554412841797 6.070205688476562 39.56611633300781 6.069190979003906 L 39.56756591796875 6.066627502441406 C 39.57239532470703 6.058097839355469 39.57735061645508 6.049331665039062 39.58220291137695 6.040763854980469 L 39.58356094360352 6.038360595703125 C 39.58841323852539 6.029777526855469 39.59334564208984 6.021064758300781 39.59822082519531 6.012443542480469 L 39.59914398193359 6.010818481445312 C 39.60153961181641 6.006576538085938 39.60406112670898 6.002120971679688 39.60646438598633 5.997879028320312 L 39.60710906982422 5.996734619140625 C 39.60918045043945 5.993080139160156 39.61142349243164 5.989112854003906 39.61349868774414 5.985443115234375 L 39.61578750610352 5.981399536132812 C 39.6180305480957 5.977432250976562 39.62032318115234 5.973388671875 39.6225700378418 5.969413757324219 L 39.62271118164062 5.969161987304688 C 39.62528991699219 5.964599609375 39.62781143188477 5.960151672363281 39.63039779663086 5.955581665039062 L 39.63092041015625 5.95465087890625 C 39.63609313964844 5.945510864257812 39.64127349853516 5.936355590820312 39.64646911621094 5.927169799804688 L 39.64680099487305 5.926589965820312 C 39.65668869018555 5.909103393554688 39.666748046875 5.891326904296875 39.67671585083008 5.873710632324219 L 39.68439102172852 5.860145568847656 C 39.684814453125 5.859397888183594 39.68527603149414 5.85858154296875 39.68569946289062 5.857833862304688 L 39.68750762939453 5.854637145996094 C 39.68996429443359 5.850296020507812 39.69242477416992 5.845947265625 39.69488525390625 5.841598510742188 L 39.69550323486328 5.840507507324219 C 40.55920028686523 4.313972473144531 41.69874954223633 2.299888610839844 41.69874954223633 2.299888610839844 L 42.14673233032227 2.553352355957031 L 41.85103607177734 2.030731201171875 L 43 0 Z M 48.90921020507812 10.44419097900391 L 51.86382293701172 15.66629028320312 L 50.12312316894531 16.65116119384766 L 47.16851425170898 11.42906188964844 L 48.90921401977539 10.44419097900391 Z M 54.81842422485352 20.88838577270508 C 54.81842422485352 20.88838577270508 57.77303695678711 26.11048889160156 57.77303695678711 26.11048889160156 L 56.0323371887207 27.0953483581543 L 53.07772445678711 21.87326431274414 L 54.81842422485352 20.88838577270508 Z M 60.72764587402344 31.33258056640625 L 63.49812316894531 36.2292366027832 C 63.49928283691406 36.23129272460938 63.50046920776367 36.2333869934082 63.50162124633789 36.23542404174805 L 63.50226974487305 36.23656845092773 C 63.50277709960938 36.23746490478516 63.50324630737305 36.23829650878906 63.50375366210938 36.23918914794922 L 63.50731658935547 36.2454948425293 C 63.50836181640625 36.24734115600586 63.50941467285156 36.24919509887695 63.51045227050781 36.25102996826172 L 63.5107536315918 36.25156402587891 C 63.51201629638672 36.2537956237793 63.51332092285156 36.25609970092773 63.51456832885742 36.25830841064453 L 63.51524353027344 36.25950241088867 C 63.51649475097656 36.2617073059082 63.51774215698242 36.263916015625 63.51897811889648 36.26609802246094 L 63.51940155029297 36.266845703125 C 63.51997375488281 36.26786041259766 63.52057647705078 36.26892471313477 63.52114868164062 36.26993179321289 L 63.52443695068359 36.2757453918457 C 63.52443695068359 36.2757453918457 63.52445983886719 36.27579116821289 63.52445983886719 36.27579116821289 L 63.52816009521484 36.28233337402344 C 63.52928161621094 36.28430938720703 63.53041076660156 36.28630447387695 63.53151702880859 36.28826141357422 L 63.53176116943359 36.28869247436523 C 63.53435516357422 36.29328155517578 63.53701782226562 36.29798889160156 63.53955841064453 36.30247116088867 L 63.53995132446289 36.30316925048828 C 63.54492950439453 36.31197357177734 63.54978942871094 36.32056045532227 63.55453491210938 36.32894515991211 L 63.55596923828125 36.33147811889648 C 63.63631820678711 36.47349548339844 63.6822509765625 36.5546760559082 63.6822509765625 36.5546760559082 L 61.94155120849609 37.53955078125 L 58.9869499206543 32.31745147705078 L 60.7276496887207 31.33257675170898 Z M 66.63685607910156 41.77677536010742 L 67.572998046875 43.43134689331055 C 67.57604217529297 43.43672561645508 67.57906341552734 43.44206619262695 67.58211517333984 43.44745635986328 L 67.58510589599609 43.45274353027344 C 68.44915771484375 44.97991943359375 69.59146118164062 46.99887466430664 69.59146118164062 46.99887466430664 L 67.85076141357422 47.98373794555664 L 64.89616394042969 42.76163864135742 L 66.63686370849609 41.77677536010742 Z M 72.54607391357422 52.22096252441406 L 75.50067901611328 57.44306564331055 L 73.75998687744141 58.42793655395508 L 70.80537414550781 53.20583724975586 L 72.54607391357422 52.22096252441406 Z M 78.45528411865234 62.6651611328125 C 78.45528411865234 62.6651611328125 79.33577728271484 64.22137451171875 80.13543701171875 65.63473510742188 L 80.13543701171875 65.63473510742188 C 80.13615417480469 65.63599395751953 80.136962890625 65.63742828369141 80.13768005371094 65.63869476318359 L 80.14142608642578 65.64530944824219 C 80.14508819580078 65.65178680419922 80.14854431152344 65.65789794921875 80.15220642089844 65.66436767578125 L 80.15326690673828 65.66624450683594 C 80.15425109863281 65.66797637939453 80.15537261962891 65.66996002197266 80.15635681152344 65.67169189453125 L 80.15744018554688 65.67360687255859 C 80.16002655029297 65.67818450927734 80.16262817382812 65.68277740478516 80.16521453857422 65.68734741210938 L 80.1656494140625 65.68811798095703 C 80.16742706298828 65.69126892089844 80.16920471191406 65.69440460205078 80.17098236083984 65.69755554199219 L 81.40989685058594 67.88726043701172 L 79.66919708251953 68.87212371826172 L 76.71458435058594 63.6500244140625 L 78.45528411865234 62.6651611328125 Z M 84.364501953125 73.10935211181641 C 84.364501953125 73.10935211181641 84.58729553222656 73.50313568115234 84.86842346191406 74 L 84.86842346191406 74 L 86 76 L 83.70206451416016 76 C 83.47206115722656 76 83.32125091552734 76 83.32125091552734 76 L 83.32125091552734 75.32692718505859 L 82.62380218505859 74.09422302246094 L 84.364501953125 73.10935211181641 Z M 71.32125091552734 74 L 77.32125091552734 74 L 77.32125091552734 76 C 77.32125091552734 76 71.32125091552734 76 71.32125091552734 76 L 71.32125091552734 74 Z M 59.32125091552734 74 L 65.32125091552734 74 L 65.32125091552734 76 C 65.32125091552734 76 59.32125091552734 76 59.32125091552734 76 L 59.32125091552734 74 Z M 47.32125091552734 74 L 53.32125091552734 74 L 53.32125091552734 76 C 53.32125091552734 76 47.32125091552734 76 47.32125091552734 76 L 47.32125091552734 74 Z M 35.32125091552734 74 L 41.32125091552734 74 L 41.32125091552734 76 C 41.32125091552734 76 35.32125091552734 76 35.32125091552734 76 L 35.32125091552734 74 Z M 23.32125091552734 74 L 29.32125091552734 74 L 29.32125091552734 76 C 29.32125091552734 76 23.32125091552734 76 23.32125091552734 76 L 23.32125091552734 74 Z M 11.32125091552734 74 L 17.32125091552734 74 L 17.32125091552734 76 C 17.32125091552734 76 11.32125091552734 76 11.32125091552734 76 L 11.32125091552734 74 Z M 1.131576538085938 74 L 5.321250915527344 74 L 5.321250915527344 76 C 5.321250915527344 76 2.955024719238281 76 1.378364562988281 76 L 0 76 C 0 76 0 76 0 76 L 0 76 C 0 76 0 76 0 76 L 1.131576538085938 74 Z M 6.243461608886719 64.96504974365234 L 7.984153747558594 65.94992828369141 L 5.029548645019531 71.17202758789062 L 3.288848876953125 70.18714904785156 C 3.288848876953125 70.18714904785156 6.243461608886719 64.96504974365234 6.243461608886719 64.96504974365234 Z M 12.15267181396484 54.5208625793457 L 13.89337158203125 55.5057258605957 L 10.93875885009766 60.72782516479492 L 9.19805908203125 59.74296188354492 C 9.19805908203125 59.74296188354492 12.15267181396484 54.5208625793457 12.15267181396484 54.5208625793457 Z M 18.0618896484375 44.07666015625 L 19.80258941650391 45.06153869628906 L 16.84797668457031 50.28363800048828 L 15.10727691650391 49.29876327514648 L 18.0618896484375 44.07666015625 Z M 23.97109985351562 33.63247680664062 L 25.71179962158203 34.61733627319336 L 22.75718688964844 39.83943939208984 L 21.01650238037109 38.85457611083984 C 21.01650238037109 38.85457611083984 23.97109985351562 33.63247680664062 23.97109985351562 33.63247680664062 Z M 29.88031387329102 23.18827438354492 L 31.62101364135742 24.17314910888672 L 28.66641235351562 29.39524841308594 L 26.92571258544922 28.41037368774414 C 26.92571258544922 28.41037368774414 27.48973083496094 27.41350173950195 28.12497329711914 26.29074478149414 L 28.14199447631836 26.26066207885742 C 28.14216995239258 26.26034927368164 28.14237213134766 26.25999450683594 28.14255142211914 26.25967788696289 L 28.14553833007812 26.25439453125 C 28.14794158935547 26.25014877319336 28.15039443969727 26.24581527709961 28.15279769897461 26.24156951904297 L 28.1533317565918 26.24061965942383 C 28.15449142456055 26.23857498168945 28.15556335449219 26.23667907714844 28.15671920776367 26.23463439941406 L 28.16753768920898 26.21551895141602 C 28.16780471801758 26.21504592895508 28.16801452636719 26.21467208862305 28.16828155517578 26.21419906616211 L 29.88031768798828 23.18827819824219 Z M 35.78952407836914 12.74408721923828 L 37.53022384643555 13.72895050048828 L 34.57562637329102 18.9510498046875 L 32.83492660522461 17.9661865234375 C 32.83492660522461 17.9661865234375 33.6201171875 16.57839965820312 34.38093948364258 15.23369216918945 L 34.38188171386719 15.23202133178711 C 34.38737869262695 15.22230911254883 34.39289855957031 15.21254730224609 34.39839172363281 15.20284271240234 L 34.39901351928711 15.20174407958984 C 34.40180587768555 15.19681167602539 34.40449142456055 15.19206237792969 34.40727996826172 15.1871337890625 L 34.40764236450195 15.18649673461914 C 34.40988922119141 15.18251800537109 34.4122428894043 15.17836380004883 34.41449356079102 15.17438507080078 L 34.41738510131836 15.16926956176758 C 34.42233276367188 15.16052627563477 34.42713165283203 15.15204620361328 34.43207550048828 15.14330673217773 L 34.43474960327148 15.13858032226562 C 34.43537902832031 15.13746643066406 34.4358024597168 15.13672256469727 34.43643188476562 15.1356086730957 L 34.4395866394043 15.13003158569336 C 34.43967819213867 15.1298713684082 34.43975448608398 15.12973785400391 34.43984222412109 15.12957763671875 L 35.78952789306641 12.74409103393555 Z" stroke="none" fill="#ff6148"/>
    </g>
  </g>
</svg>
