<svg xmlns="http://www.w3.org/2000/svg" xmlns:xlink="http://www.w3.org/1999/xlink" width="820" height="273.337" viewBox="0 0 820 273.337">
  <defs>
    <clipPath id="clip-path">
      <rect id="Rectángulo_373676" data-name="Rectángulo 373676" width="820" height="273.337" transform="translate(390 2209.399)" fill="#eceff1"/>
    </clipPath>
    <clipPath id="clip-path-2">
      <rect id="Rectángulo_373854" data-name="Rectángulo 373854" width="820" height="455" transform="translate(0 -0.099)" fill="#ff8e7c" opacity="0.38"/>
    </clipPath>
    <clipPath id="clip-path-3">
      <ellipse id="Elipse_6095" data-name="Elipse 6095" cx="40.482" cy="44.385" rx="40.482" ry="44.385" fill="none"/>
    </clipPath>
    <clipPath id="clip-path-6">
      <ellipse id="Elipse_6098" data-name="Elipse 6098" cx="53.411" cy="58.559" rx="53.411" ry="58.559" fill="none"/>
    </clipPath>
  </defs>
  <g id="Grupo_1070052" data-name="Grupo 1070052" transform="translate(-390 -2185)">
    <g id="Grupo_1070047" data-name="Grupo 1070047">
      <g id="Enmascarar_grupo_1006167" data-name="Enmascarar grupo 1006167" transform="translate(0 -24.399)" clip-path="url(#clip-path)">
        <g id="Grupo_1070046" data-name="Grupo 1070046" transform="translate(390 2209.13)">
          <g id="Grupo_1067341" data-name="Grupo 1067341" transform="translate(0 0.269)">
            <rect id="Rectángulo_373676-2" data-name="Rectángulo 373676" width="820" height="273.337" fill="#eceff1"/>
          </g>
          <g id="Enmascarar_grupo_1006166" data-name="Enmascarar grupo 1006166" transform="translate(0 0)" opacity="0.38" clip-path="url(#clip-path-2)">
            <g id="Grupo_1067340" data-name="Grupo 1067340" transform="translate(-181 7.301)">
              <path id="Rectángulo_373831" data-name="Rectángulo 373831" d="M0-.5H117.765a.526.526,0,0,1,.5.548V10.874a.526.526,0,0,1-.5.548H0a.526.526,0,0,1-.5-.548V.048A.526.526,0,0,1,0-.5ZM117.265.6H.5v9.73H117.265Z" transform="translate(977.789 62.694)" fill="#8f9294" opacity="0.69"/>
              <g id="Grupo_1067184" data-name="Grupo 1067184" transform="translate(317.18 69.766)" opacity="0.69">
                <g id="Grupo_1067183" data-name="Grupo 1067183" transform="translate(0 0)" clip-path="url(#clip-path-3)">
                  <path id="Trazado_775041" data-name="Trazado 775041" d="M464.049,174.952l-.477-.491c5.678-6.632,11.662-13.122,17.449-19.4,5.629-6.1,11.45-12.417,16.97-18.842l.476.492c-5.528,6.434-11.353,12.751-16.986,18.86C475.7,161.845,469.718,168.33,464.049,174.952Z" transform="translate(-468.163 -138.548)" fill="#606060"/>
                  <path id="Trazado_775042" data-name="Trazado 775042" d="M464,180.031l-.464-.507c4.639-5.106,9.456-10.266,14.114-15.256,8.544-9.153,17.379-18.618,25.447-28.1l.479.49c-8.078,9.492-16.919,18.963-25.468,28.122C473.455,169.77,468.64,174.928,464,180.031Z" transform="translate(-468.153 -138.538)" fill="#606060"/>
                  <path id="Trazado_775043" data-name="Trazado 775043" d="M463.875,185.368l-.463-.507c12.728-13.966,26.422-28.982,44.4-48.689l.463.508C490.3,156.387,476.6,171.4,463.875,185.368Z" transform="translate(-468.119 -138.541)" fill="#606060"/>
                  <path id="Trazado_775044" data-name="Trazado 775044" d="M463.926,190.6l-.463-.508c14.752-16.163,30.34-33.252,49.058-53.778l.463.507C494.267,157.352,478.678,174.441,463.926,190.6Z" transform="translate(-468.132 -138.57)" fill="#606060"/>
                  <path id="Trazado_775045" data-name="Trazado 775045" d="M464,195.685l-.461-.509c15.862-17.276,31.778-34.316,47.17-50.794l7.59-8.127.457.513-7.59,8.127C495.775,161.373,479.86,178.411,464,195.685Z" transform="translate(-468.152 -138.558)" fill="#606060"/>
                  <path id="Trazado_775046" data-name="Trazado 775046" d="M463.956,201l-.611-.259a1.777,1.777,0,0,1,1.112-.978,2.006,2.006,0,0,0,.659-.4c9.255-10.4,18.535-20.585,27.509-30.433,9.631-10.569,19.59-21.5,29.407-32.578l.469.5c-9.821,11.083-19.781,22.014-29.414,32.585-8.973,9.847-18.251,20.029-27.506,30.43a2.5,2.5,0,0,1-.875.556C464.357,200.581,464.054,200.718,463.956,201Z" transform="translate(-468.121 -138.575)" fill="#606060"/>
                  <path id="Trazado_775047" data-name="Trazado 775047" d="M464.1,206.142l-.484-.484c4.865-5.848,9.955-11.33,14.877-16.632,3.98-4.287,8.1-8.72,12.159-13.409l.006-.007c5.085-5.575,10.225-10.946,15.195-16.139,7.481-7.818,14.548-15.2,21.457-23.235l.476.492c-6.921,8.047-13.994,15.437-21.482,23.262-4.967,5.19-10.1,10.556-15.181,16.124-4.07,4.7-8.188,9.133-12.171,13.423C474.04,194.833,468.957,200.308,464.1,206.142Z" transform="translate(-468.177 -138.552)" fill="#606060"/>
                  <path id="Trazado_775048" data-name="Trazado 775048" d="M464.008,211.668l-.476-.493c13.115-15.2,26.9-30.075,40.235-44.455,8.828-9.521,17.957-19.367,26.773-29.185l.466.5c-8.82,9.822-17.95,19.67-26.78,29.193C490.9,181.607,477.114,196.473,464.008,211.668Z" transform="translate(-468.152 -138.806)" fill="#606060"/>
                  <path id="Trazado_775049" data-name="Trazado 775049" d="M464.112,217.94l-.464-.506c19-20.955,40.255-44.283,66.877-73.416l.462.508C504.365,173.658,483.115,196.986,464.112,217.94Z" transform="translate(-468.182 -140.067)" fill="#606060"/>
                  <path id="Trazado_775050" data-name="Trazado 775050" d="M464.133,223.924l-.469-.5c12.985-14.644,26.5-29.283,39.562-43.44C513,169.4,523.1,158.448,532.951,147.537l.465.5c-9.852,10.914-19.958,21.864-29.731,32.453C490.622,194.649,477.113,209.285,464.133,223.924Z" transform="translate(-468.186 -140.75)" fill="#606060"/>
                  <path id="Trazado_775051" data-name="Trazado 775051" d="M463.841,229.39l-.45-.521c15.827-16.454,31.447-33.868,46.552-50.709,9.043-10.082,18.395-20.508,27.726-30.657l.461.509c-9.328,10.146-18.678,20.57-27.72,30.65C495.3,195.509,479.677,212.927,463.841,229.39Z" transform="translate(-468.111 -140.745)" fill="#606060"/>
                  <path id="Trazado_775052" data-name="Trazado 775052" d="M467.436,231.665l-.463-.507,76.084-83.419.463.507Z" transform="translate(-469.063 -140.79)" fill="#606060"/>
                  <path id="Trazado_775053" data-name="Trazado 775053" d="M473.846,231.714l-.462-.508c10.122-11.073,20.3-22.3,30.136-33.151,15.014-16.562,30.539-33.688,45.912-50.314l.46.511C534.521,164.875,519,182,503.984,198.561,494.144,209.415,483.969,220.639,473.846,231.714Z" transform="translate(-470.764 -140.791)" fill="#606060"/>
                  <path id="Trazado_775054" data-name="Trazado 775054" d="M480.286,232.309l-.457-.513c14.4-15.419,28.618-31.192,42.366-46.446,10.287-11.414,20.925-23.217,31.461-34.669l.461.51c-10.534,11.449-21.17,23.251-31.456,34.664C508.91,201.11,494.693,216.885,480.286,232.309Z" transform="translate(-472.473 -141.362)" fill="#606060"/>
                  <path id="Trazado_775055" data-name="Trazado 775055" d="M486.752,233.513l-.446-.525c15.183-15.521,29.934-32.149,44.2-48.229,8.147-9.183,16.571-18.68,25.012-27.9l.462.508c-8.438,9.217-16.86,18.711-25.005,27.893C516.7,201.346,501.947,217.98,486.752,233.513Z" transform="translate(-474.189 -142.563)" fill="#606060"/>
                  <path id="Trazado_775056" data-name="Trazado 775056" d="M493.259,234.857l-.46-.51c10.173-11.036,20.453-22.365,30.394-33.32,11.056-12.184,22.489-24.783,33.873-37.09l.46.511c-11.382,12.3-22.814,24.9-33.869,37.085C513.715,212.489,503.434,223.819,493.259,234.857Z" transform="translate(-475.914 -143.94)" fill="#606060"/>
                  <path id="Trazado_775057" data-name="Trazado 775057" d="M499.783,235.977l-.46-.511c11.948-12.914,23.968-26.208,35.593-39.065,7.866-8.7,16-17.695,24.018-26.469l.462.508c-8.016,8.773-16.15,17.768-24.016,26.466C523.755,209.764,511.733,223.06,499.783,235.977Z" transform="translate(-477.644 -145.105)" fill="#606060"/>
                  <path id="Trazado_775058" data-name="Trazado 775058" d="M506.174,237.322l-.465-.506c18.448-20.383,37.272-41.02,54.867-60.285l.463.508C543.445,196.3,524.621,216.94,506.174,237.322Z" transform="translate(-479.339 -146.388)" fill="#606060"/>
                  <path id="Trazado_775059" data-name="Trazado 775059" d="M512.737,238.505l-.457-.513c17.175-18.387,34.028-36.887,50.092-54.986l.469.5C546.773,201.61,529.916,220.114,512.737,238.505Z" transform="translate(-481.081 -147.646)" fill="#606060"/>
                  <path id="Trazado_775060" data-name="Trazado 775060" d="M519.164,239.822l-.463-.507c15.567-17.1,31.645-34.727,45.318-49.713l.463.508C550.808,205.1,534.731,222.721,519.164,239.822Z" transform="translate(-482.785 -148.93)" fill="#606060"/>
                  <path id="Trazado_775061" data-name="Trazado 775061" d="M525.6,241.151l-.462-.508c14.192-15.527,28.327-31.028,40.462-44.337l.463.507C553.928,210.123,539.793,225.623,525.6,241.151Z" transform="translate(-484.492 -150.233)" fill="#606060"/>
                  <path id="Trazado_775062" data-name="Trazado 775062" d="M532.05,242.344l-.466-.5c2.569-2.86,5.241-5.826,7.942-8.814,9.873-10.921,19.66-21.626,27.932-30.657l.462.509c-8.271,9.03-18.057,19.734-27.929,30.653C537.29,236.519,534.618,239.484,532.05,242.344Z" transform="translate(-486.203 -151.412)" fill="#606060"/>
                  <path id="Trazado_775063" data-name="Trazado 775063" d="M538.5,243.771l-.448-.523c8.9-9.174,18.78-19.859,31.082-33.626l.468.5C557.292,223.9,547.409,234.59,538.5,243.771Z" transform="translate(-487.916 -152.822)" fill="#606060"/>
                </g>
              </g>
              <g id="Grupo_1067186" data-name="Grupo 1067186" transform="translate(332.18 425.568)" opacity="0.69">
                <g id="Grupo_1067185" data-name="Grupo 1067185" transform="translate(0 0)" clip-path="url(#clip-path-3)">
                  <path id="Trazado_775041-2" data-name="Trazado 775041" d="M464.049,174.952l-.477-.491c5.678-6.632,11.662-13.122,17.449-19.4,5.629-6.1,11.45-12.417,16.97-18.842l.476.492c-5.528,6.434-11.353,12.751-16.986,18.86C475.7,161.845,469.718,168.33,464.049,174.952Z" transform="translate(-468.163 -138.548)" fill="#606060"/>
                  <path id="Trazado_775042-2" data-name="Trazado 775042" d="M464,180.031l-.464-.507c4.639-5.106,9.456-10.266,14.114-15.256,8.544-9.153,17.379-18.618,25.447-28.1l.479.49c-8.078,9.492-16.919,18.963-25.468,28.122C473.455,169.77,468.64,174.928,464,180.031Z" transform="translate(-468.153 -138.538)" fill="#606060"/>
                  <path id="Trazado_775043-2" data-name="Trazado 775043" d="M463.875,185.368l-.463-.507c12.728-13.966,26.422-28.982,44.4-48.689l.463.508C490.3,156.387,476.6,171.4,463.875,185.368Z" transform="translate(-468.119 -138.541)" fill="#606060"/>
                  <path id="Trazado_775044-2" data-name="Trazado 775044" d="M463.926,190.6l-.463-.508c14.752-16.163,30.34-33.252,49.058-53.778l.463.507C494.267,157.352,478.678,174.441,463.926,190.6Z" transform="translate(-468.132 -138.57)" fill="#606060"/>
                  <path id="Trazado_775045-2" data-name="Trazado 775045" d="M464,195.685l-.461-.509c15.862-17.276,31.778-34.316,47.17-50.794l7.59-8.127.457.513-7.59,8.127C495.775,161.373,479.86,178.411,464,195.685Z" transform="translate(-468.152 -138.558)" fill="#606060"/>
                  <path id="Trazado_775046-2" data-name="Trazado 775046" d="M463.956,201l-.611-.259a1.777,1.777,0,0,1,1.112-.978,2.006,2.006,0,0,0,.659-.4c9.255-10.4,18.535-20.585,27.509-30.433,9.631-10.569,19.59-21.5,29.407-32.578l.469.5c-9.821,11.083-19.781,22.014-29.414,32.585-8.973,9.847-18.251,20.029-27.506,30.43a2.5,2.5,0,0,1-.875.556C464.357,200.581,464.054,200.718,463.956,201Z" transform="translate(-468.121 -138.575)" fill="#606060"/>
                  <path id="Trazado_775047-2" data-name="Trazado 775047" d="M464.1,206.142l-.484-.484c4.865-5.848,9.955-11.33,14.877-16.632,3.98-4.287,8.1-8.72,12.159-13.409l.006-.007c5.085-5.575,10.225-10.946,15.195-16.139,7.481-7.818,14.548-15.2,21.457-23.235l.476.492c-6.921,8.047-13.994,15.437-21.482,23.262-4.967,5.19-10.1,10.556-15.181,16.124-4.07,4.7-8.188,9.133-12.171,13.423C474.04,194.833,468.957,200.308,464.1,206.142Z" transform="translate(-468.177 -138.552)" fill="#606060"/>
                  <path id="Trazado_775048-2" data-name="Trazado 775048" d="M464.008,211.668l-.476-.493c13.115-15.2,26.9-30.075,40.235-44.455,8.828-9.521,17.957-19.367,26.773-29.185l.466.5c-8.82,9.822-17.95,19.67-26.78,29.193C490.9,181.607,477.114,196.473,464.008,211.668Z" transform="translate(-468.152 -138.806)" fill="#606060"/>
                  <path id="Trazado_775049-2" data-name="Trazado 775049" d="M464.112,217.94l-.464-.506c19-20.955,40.255-44.283,66.877-73.416l.462.508C504.365,173.658,483.115,196.986,464.112,217.94Z" transform="translate(-468.182 -140.067)" fill="#606060"/>
                  <path id="Trazado_775050-2" data-name="Trazado 775050" d="M464.133,223.924l-.469-.5c12.985-14.644,26.5-29.283,39.562-43.44C513,169.4,523.1,158.448,532.951,147.537l.465.5c-9.852,10.914-19.958,21.864-29.731,32.453C490.622,194.649,477.113,209.285,464.133,223.924Z" transform="translate(-468.186 -140.75)" fill="#606060"/>
                  <path id="Trazado_775051-2" data-name="Trazado 775051" d="M463.841,229.39l-.45-.521c15.827-16.454,31.447-33.868,46.552-50.709,9.043-10.082,18.395-20.508,27.726-30.657l.461.509c-9.328,10.146-18.678,20.57-27.72,30.65C495.3,195.509,479.677,212.927,463.841,229.39Z" transform="translate(-468.111 -140.745)" fill="#606060"/>
                  <path id="Trazado_775052-2" data-name="Trazado 775052" d="M467.436,231.665l-.463-.507,76.084-83.419.463.507Z" transform="translate(-469.063 -140.79)" fill="#606060"/>
                  <path id="Trazado_775053-2" data-name="Trazado 775053" d="M473.846,231.714l-.462-.508c10.122-11.073,20.3-22.3,30.136-33.151,15.014-16.562,30.539-33.688,45.912-50.314l.46.511C534.521,164.875,519,182,503.984,198.561,494.144,209.415,483.969,220.639,473.846,231.714Z" transform="translate(-470.764 -140.791)" fill="#606060"/>
                  <path id="Trazado_775054-2" data-name="Trazado 775054" d="M480.286,232.309l-.457-.513c14.4-15.419,28.618-31.192,42.366-46.446,10.287-11.414,20.925-23.217,31.461-34.669l.461.51c-10.534,11.449-21.17,23.251-31.456,34.664C508.91,201.11,494.693,216.885,480.286,232.309Z" transform="translate(-472.473 -141.362)" fill="#606060"/>
                  <path id="Trazado_775055-2" data-name="Trazado 775055" d="M486.752,233.513l-.446-.525c15.183-15.521,29.934-32.149,44.2-48.229,8.147-9.183,16.571-18.68,25.012-27.9l.462.508c-8.438,9.217-16.86,18.711-25.005,27.893C516.7,201.346,501.947,217.98,486.752,233.513Z" transform="translate(-474.189 -142.563)" fill="#606060"/>
                  <path id="Trazado_775056-2" data-name="Trazado 775056" d="M493.259,234.857l-.46-.51c10.173-11.036,20.453-22.365,30.394-33.32,11.056-12.184,22.489-24.783,33.873-37.09l.46.511c-11.382,12.3-22.814,24.9-33.869,37.085C513.715,212.489,503.434,223.819,493.259,234.857Z" transform="translate(-475.914 -143.94)" fill="#606060"/>
                  <path id="Trazado_775057-2" data-name="Trazado 775057" d="M499.783,235.977l-.46-.511c11.948-12.914,23.968-26.208,35.593-39.065,7.866-8.7,16-17.695,24.018-26.469l.462.508c-8.016,8.773-16.15,17.768-24.016,26.466C523.755,209.764,511.733,223.06,499.783,235.977Z" transform="translate(-477.644 -145.105)" fill="#606060"/>
                  <path id="Trazado_775058-2" data-name="Trazado 775058" d="M506.174,237.322l-.465-.506c18.448-20.383,37.272-41.02,54.867-60.285l.463.508C543.445,196.3,524.621,216.94,506.174,237.322Z" transform="translate(-479.339 -146.388)" fill="#606060"/>
                  <path id="Trazado_775059-2" data-name="Trazado 775059" d="M512.737,238.505l-.457-.513c17.175-18.387,34.028-36.887,50.092-54.986l.469.5C546.773,201.61,529.916,220.114,512.737,238.505Z" transform="translate(-481.081 -147.646)" fill="#606060"/>
                  <path id="Trazado_775060-2" data-name="Trazado 775060" d="M519.164,239.822l-.463-.507c15.567-17.1,31.645-34.727,45.318-49.713l.463.508C550.808,205.1,534.731,222.721,519.164,239.822Z" transform="translate(-482.785 -148.93)" fill="#606060"/>
                  <path id="Trazado_775061-2" data-name="Trazado 775061" d="M525.6,241.151l-.462-.508c14.192-15.527,28.327-31.028,40.462-44.337l.463.507C553.928,210.123,539.793,225.623,525.6,241.151Z" transform="translate(-484.492 -150.233)" fill="#606060"/>
                  <path id="Trazado_775062-2" data-name="Trazado 775062" d="M532.05,242.344l-.466-.5c2.569-2.86,5.241-5.826,7.942-8.814,9.873-10.921,19.66-21.626,27.932-30.657l.462.509c-8.271,9.03-18.057,19.734-27.929,30.653C537.29,236.519,534.618,239.484,532.05,242.344Z" transform="translate(-486.203 -151.412)" fill="#606060"/>
                  <path id="Trazado_775063-2" data-name="Trazado 775063" d="M538.5,243.771l-.448-.523c8.9-9.174,18.78-19.859,31.082-33.626l.468.5C557.292,223.9,547.409,234.59,538.5,243.771Z" transform="translate(-487.916 -152.822)" fill="#606060"/>
                </g>
              </g>
              <g id="Grupo_1067188" data-name="Grupo 1067188" transform="translate(968.123 191.717)" opacity="0.69">
                <g id="Grupo_1067187" data-name="Grupo 1067187" transform="translate(0 0)" clip-path="url(#clip-path-3)">
                  <path id="Trazado_775041-3" data-name="Trazado 775041" d="M464.049,174.952l-.477-.491c5.678-6.632,11.662-13.122,17.449-19.4,5.629-6.1,11.45-12.417,16.97-18.842l.476.492c-5.528,6.434-11.353,12.751-16.986,18.86C475.7,161.845,469.718,168.33,464.049,174.952Z" transform="translate(-468.163 -138.548)" fill="#606060"/>
                  <path id="Trazado_775042-3" data-name="Trazado 775042" d="M464,180.031l-.464-.507c4.639-5.106,9.456-10.266,14.114-15.256,8.544-9.153,17.379-18.618,25.447-28.1l.479.49c-8.078,9.492-16.919,18.963-25.468,28.122C473.455,169.77,468.64,174.928,464,180.031Z" transform="translate(-468.153 -138.538)" fill="#606060"/>
                  <path id="Trazado_775043-3" data-name="Trazado 775043" d="M463.875,185.368l-.463-.507c12.728-13.966,26.422-28.982,44.4-48.689l.463.508C490.3,156.387,476.6,171.4,463.875,185.368Z" transform="translate(-468.119 -138.541)" fill="#606060"/>
                  <path id="Trazado_775044-3" data-name="Trazado 775044" d="M463.926,190.6l-.463-.508c14.752-16.163,30.34-33.252,49.058-53.778l.463.507C494.267,157.352,478.678,174.441,463.926,190.6Z" transform="translate(-468.132 -138.57)" fill="#606060"/>
                  <path id="Trazado_775045-3" data-name="Trazado 775045" d="M464,195.685l-.461-.509c15.862-17.276,31.778-34.316,47.17-50.794l7.59-8.127.457.513-7.59,8.127C495.775,161.373,479.86,178.411,464,195.685Z" transform="translate(-468.152 -138.558)" fill="#606060"/>
                  <path id="Trazado_775046-3" data-name="Trazado 775046" d="M463.956,201l-.611-.259a1.777,1.777,0,0,1,1.112-.978,2.006,2.006,0,0,0,.659-.4c9.255-10.4,18.535-20.585,27.509-30.433,9.631-10.569,19.59-21.5,29.407-32.578l.469.5c-9.821,11.083-19.781,22.014-29.414,32.585-8.973,9.847-18.251,20.029-27.506,30.43a2.5,2.5,0,0,1-.875.556C464.357,200.581,464.054,200.718,463.956,201Z" transform="translate(-468.121 -138.575)" fill="#606060"/>
                  <path id="Trazado_775047-3" data-name="Trazado 775047" d="M464.1,206.142l-.484-.484c4.865-5.848,9.955-11.33,14.877-16.632,3.98-4.287,8.1-8.72,12.159-13.409l.006-.007c5.085-5.575,10.225-10.946,15.195-16.139,7.481-7.818,14.548-15.2,21.457-23.235l.476.492c-6.921,8.047-13.994,15.437-21.482,23.262-4.967,5.19-10.1,10.556-15.181,16.124-4.07,4.7-8.188,9.133-12.171,13.423C474.04,194.833,468.957,200.308,464.1,206.142Z" transform="translate(-468.177 -138.552)" fill="#606060"/>
                  <path id="Trazado_775048-3" data-name="Trazado 775048" d="M464.008,211.668l-.476-.493c13.115-15.2,26.9-30.075,40.235-44.455,8.828-9.521,17.957-19.367,26.773-29.185l.466.5c-8.82,9.822-17.95,19.67-26.78,29.193C490.9,181.607,477.114,196.473,464.008,211.668Z" transform="translate(-468.152 -138.806)" fill="#606060"/>
                  <path id="Trazado_775049-3" data-name="Trazado 775049" d="M464.112,217.94l-.464-.506c19-20.955,40.255-44.283,66.877-73.416l.462.508C504.365,173.658,483.115,196.986,464.112,217.94Z" transform="translate(-468.182 -140.067)" fill="#606060"/>
                  <path id="Trazado_775050-3" data-name="Trazado 775050" d="M464.133,223.924l-.469-.5c12.985-14.644,26.5-29.283,39.562-43.44C513,169.4,523.1,158.448,532.951,147.537l.465.5c-9.852,10.914-19.958,21.864-29.731,32.453C490.622,194.649,477.113,209.285,464.133,223.924Z" transform="translate(-468.186 -140.75)" fill="#606060"/>
                  <path id="Trazado_775051-3" data-name="Trazado 775051" d="M463.841,229.39l-.45-.521c15.827-16.454,31.447-33.868,46.552-50.709,9.043-10.082,18.395-20.508,27.726-30.657l.461.509c-9.328,10.146-18.678,20.57-27.72,30.65C495.3,195.509,479.677,212.927,463.841,229.39Z" transform="translate(-468.111 -140.745)" fill="#606060"/>
                  <path id="Trazado_775052-3" data-name="Trazado 775052" d="M467.436,231.665l-.463-.507,76.084-83.419.463.507Z" transform="translate(-469.063 -140.79)" fill="#606060"/>
                  <path id="Trazado_775053-3" data-name="Trazado 775053" d="M473.846,231.714l-.462-.508c10.122-11.073,20.3-22.3,30.136-33.151,15.014-16.562,30.539-33.688,45.912-50.314l.46.511C534.521,164.875,519,182,503.984,198.561,494.144,209.415,483.969,220.639,473.846,231.714Z" transform="translate(-470.764 -140.791)" fill="#606060"/>
                  <path id="Trazado_775054-3" data-name="Trazado 775054" d="M480.286,232.309l-.457-.513c14.4-15.419,28.618-31.192,42.366-46.446,10.287-11.414,20.925-23.217,31.461-34.669l.461.51c-10.534,11.449-21.17,23.251-31.456,34.664C508.91,201.11,494.693,216.885,480.286,232.309Z" transform="translate(-472.473 -141.362)" fill="#606060"/>
                  <path id="Trazado_775055-3" data-name="Trazado 775055" d="M486.752,233.513l-.446-.525c15.183-15.521,29.934-32.149,44.2-48.229,8.147-9.183,16.571-18.68,25.012-27.9l.462.508c-8.438,9.217-16.86,18.711-25.005,27.893C516.7,201.346,501.947,217.98,486.752,233.513Z" transform="translate(-474.189 -142.563)" fill="#606060"/>
                  <path id="Trazado_775056-3" data-name="Trazado 775056" d="M493.259,234.857l-.46-.51c10.173-11.036,20.453-22.365,30.394-33.32,11.056-12.184,22.489-24.783,33.873-37.09l.46.511c-11.382,12.3-22.814,24.9-33.869,37.085C513.715,212.489,503.434,223.819,493.259,234.857Z" transform="translate(-475.914 -143.94)" fill="#606060"/>
                  <path id="Trazado_775057-3" data-name="Trazado 775057" d="M499.783,235.977l-.46-.511c11.948-12.914,23.968-26.208,35.593-39.065,7.866-8.7,16-17.695,24.018-26.469l.462.508c-8.016,8.773-16.15,17.768-24.016,26.466C523.755,209.764,511.733,223.06,499.783,235.977Z" transform="translate(-477.644 -145.105)" fill="#606060"/>
                  <path id="Trazado_775058-3" data-name="Trazado 775058" d="M506.174,237.322l-.465-.506c18.448-20.383,37.272-41.02,54.867-60.285l.463.508C543.445,196.3,524.621,216.94,506.174,237.322Z" transform="translate(-479.339 -146.388)" fill="#606060"/>
                  <path id="Trazado_775059-3" data-name="Trazado 775059" d="M512.737,238.505l-.457-.513c17.175-18.387,34.028-36.887,50.092-54.986l.469.5C546.773,201.61,529.916,220.114,512.737,238.505Z" transform="translate(-481.081 -147.646)" fill="#606060"/>
                  <path id="Trazado_775060-3" data-name="Trazado 775060" d="M519.164,239.822l-.463-.507c15.567-17.1,31.645-34.727,45.318-49.713l.463.508C550.808,205.1,534.731,222.721,519.164,239.822Z" transform="translate(-482.785 -148.93)" fill="#606060"/>
                  <path id="Trazado_775061-3" data-name="Trazado 775061" d="M525.6,241.151l-.462-.508c14.192-15.527,28.327-31.028,40.462-44.337l.463.507C553.928,210.123,539.793,225.623,525.6,241.151Z" transform="translate(-484.492 -150.233)" fill="#606060"/>
                  <path id="Trazado_775062-3" data-name="Trazado 775062" d="M532.05,242.344l-.466-.5c2.569-2.86,5.241-5.826,7.942-8.814,9.873-10.921,19.66-21.626,27.932-30.657l.462.509c-8.271,9.03-18.057,19.734-27.929,30.653C537.29,236.519,534.618,239.484,532.05,242.344Z" transform="translate(-486.203 -151.412)" fill="#606060"/>
                  <path id="Trazado_775063-3" data-name="Trazado 775063" d="M538.5,243.771l-.448-.523c8.9-9.174,18.78-19.859,31.082-33.626l.468.5C557.292,223.9,547.409,234.59,538.5,243.771Z" transform="translate(-487.916 -152.822)" fill="#606060"/>
                </g>
              </g>
              <path id="Elipse_6079" data-name="Elipse 6079" d="M5.2-.327a5.817,5.817,0,0,1,5.526,6.059A5.817,5.817,0,0,1,5.2,11.79,5.817,5.817,0,0,1-.327,5.731,5.817,5.817,0,0,1,5.2-.327Zm0,11.4A5.128,5.128,0,0,0,10.07,5.731,5.128,5.128,0,0,0,5.2.39,5.128,5.128,0,0,0,.327,5.731,5.128,5.128,0,0,0,5.2,11.073Z" transform="translate(268.553 385.215)" fill="#606060"/>
              <path id="Elipse_6096-2" data-name="Elipse 6096" d="M5.2-.327a5.817,5.817,0,0,1,5.526,6.059A5.817,5.817,0,0,1,5.2,11.79,5.817,5.817,0,0,1-.327,5.731,5.817,5.817,0,0,1,5.2-.327Zm0,11.4A5.128,5.128,0,0,0,10.07,5.731,5.128,5.128,0,0,0,5.2.39,5.128,5.128,0,0,0,.327,5.731,5.128,5.128,0,0,0,5.2,11.073Z" transform="translate(237.553 141.43)" fill="#606060"/>
              <path id="Elipse_6080" data-name="Elipse 6080" d="M5.2-.327a5.817,5.817,0,0,1,5.526,6.059A5.817,5.817,0,0,1,5.2,11.79,5.817,5.817,0,0,1-.327,5.731,5.817,5.817,0,0,1,5.2-.327Zm0,11.4A5.128,5.128,0,0,0,10.07,5.731,5.128,5.128,0,0,0,5.2.39,5.128,5.128,0,0,0,.327,5.731,5.128,5.128,0,0,0,5.2,11.073Z" transform="translate(567.838 335.21)" fill="#606060"/>
              <path id="Elipse_6081" data-name="Elipse 6081" d="M5.2-.327a5.817,5.817,0,0,1,5.526,6.059A5.817,5.817,0,0,1,5.2,11.79,5.817,5.817,0,0,1-.327,5.731,5.817,5.817,0,0,1,5.2-.327Zm0,11.4A5.128,5.128,0,0,0,10.07,5.731,5.128,5.128,0,0,0,5.2.39,5.128,5.128,0,0,0,.327,5.731,5.128,5.128,0,0,0,5.2,11.073Z" transform="translate(594.157 10.676)" fill="#606060"/>
              <path id="Elipse_6082" data-name="Elipse 6082" d="M5.2-.327a5.817,5.817,0,0,1,5.526,6.059A5.817,5.817,0,0,1,5.2,11.79,5.817,5.817,0,0,1-.327,5.731,5.817,5.817,0,0,1,5.2-.327Zm0,11.4A5.128,5.128,0,0,0,10.07,5.731,5.128,5.128,0,0,0,5.2.39,5.128,5.128,0,0,0,.327,5.731,5.128,5.128,0,0,0,5.2,11.073Z" transform="translate(862.154 298.308)" fill="#606060"/>
              <path id="Elipse_6083" data-name="Elipse 6083" d="M5.2-.327a5.817,5.817,0,0,1,5.526,6.059A5.817,5.817,0,0,1,5.2,11.79,5.817,5.817,0,0,1-.327,5.731,5.817,5.817,0,0,1,5.2-.327Zm0,11.4A5.128,5.128,0,0,0,10.07,5.731,5.128,5.128,0,0,0,5.2.39,5.128,5.128,0,0,0,.327,5.731,5.128,5.128,0,0,0,5.2,11.073Z" transform="translate(1095.555 414.137)" fill="#606060"/>
              <path id="Elipse_6097-2" data-name="Elipse 6097" d="M5.2-.327a5.817,5.817,0,0,1,5.526,6.059A5.817,5.817,0,0,1,5.2,11.79,5.817,5.817,0,0,1-.327,5.731,5.817,5.817,0,0,1,5.2-.327Zm0,11.4A5.128,5.128,0,0,0,10.07,5.731,5.128,5.128,0,0,0,5.2.39,5.128,5.128,0,0,0,.327,5.731,5.128,5.128,0,0,0,5.2,11.073Z" transform="translate(1162.555 180.115)" fill="#606060"/>
              <path id="Elipse_6097-3" data-name="Elipse 6097" d="M5.2-.327a5.817,5.817,0,0,1,5.526,6.059A5.817,5.817,0,0,1,5.2,11.79,5.817,5.817,0,0,1-.327,5.731,5.817,5.817,0,0,1,5.2-.327Zm0,11.4A5.128,5.128,0,0,0,10.07,5.731,5.128,5.128,0,0,0,5.2.39,5.128,5.128,0,0,0,.327,5.731,5.128,5.128,0,0,0,5.2,11.073Z" transform="translate(933.555 10.676)" fill="#606060"/>
              <g id="Grupo_1067209" data-name="Grupo 1067209" transform="translate(243.209 577.292)">
                <g id="Grupo_1067193" data-name="Grupo 1067193" transform="translate(0 0)">
                  <g id="Grupo_1067189" data-name="Grupo 1067189">
                    <path id="Línea_3204" data-name="Línea 3204" d="M.194,8.006H-.194V0H.194Z" transform="translate(3.651 0)" fill="#8f9294"/>
                    <path id="Línea_3205" data-name="Línea 3205" d="M7.3.231H0V-.194H7.3Z" transform="translate(0 3.984)" fill="#8f9294"/>
                  </g>
                  <g id="Grupo_1067190" data-name="Grupo 1067190" transform="translate(19.898)">
                    <path id="Línea_3206" data-name="Línea 3206" d="M.194,8.006H-.194V0H.194Z" transform="translate(3.651 0)" fill="#8f9294"/>
                    <path id="Línea_3207" data-name="Línea 3207" d="M7.3.231H0V-.194H7.3Z" transform="translate(0 3.984)" fill="#8f9294"/>
                  </g>
                  <g id="Grupo_1067191" data-name="Grupo 1067191" transform="translate(39.796)">
                    <path id="Línea_3208" data-name="Línea 3208" d="M.194,8.006H-.194V0H.194Z" transform="translate(3.651 0)" fill="#8f9294"/>
                    <path id="Línea_3209" data-name="Línea 3209" d="M7.3.231H0V-.194H7.3Z" transform="translate(0 3.984)" fill="#8f9294"/>
                  </g>
                  <g id="Grupo_1067192" data-name="Grupo 1067192" transform="translate(59.694)">
                    <path id="Línea_3210" data-name="Línea 3210" d="M.194,8.006H-.194V0H.194Z" transform="translate(3.651 0)" fill="#8f9294"/>
                    <path id="Línea_3211" data-name="Línea 3211" d="M7.3.231H0V-.194H7.3Z" transform="translate(0 3.984)" fill="#8f9294"/>
                  </g>
                </g>
                <g id="Grupo_1067198" data-name="Grupo 1067198" transform="translate(0 16.612)">
                  <g id="Grupo_1067194" data-name="Grupo 1067194" transform="translate(0 0)">
                    <path id="Línea_3212" data-name="Línea 3212" d="M.194,8.006H-.194V0H.194Z" transform="translate(3.651 0)" fill="#8f9294"/>
                    <path id="Línea_3213" data-name="Línea 3213" d="M7.3.231H0V-.194H7.3Z" transform="translate(0 3.984)" fill="#8f9294"/>
                  </g>
                  <g id="Grupo_1067195" data-name="Grupo 1067195" transform="translate(19.898 0)">
                    <path id="Línea_3214" data-name="Línea 3214" d="M.194,8.006H-.194V0H.194Z" transform="translate(3.651 0)" fill="#8f9294"/>
                    <path id="Línea_3215" data-name="Línea 3215" d="M7.3.231H0V-.194H7.3Z" transform="translate(0 3.984)" fill="#8f9294"/>
                  </g>
                  <g id="Grupo_1067196" data-name="Grupo 1067196" transform="translate(39.796 0)">
                    <path id="Línea_3216" data-name="Línea 3216" d="M.194,8.006H-.194V0H.194Z" transform="translate(3.651 0)" fill="#8f9294"/>
                    <path id="Línea_3217" data-name="Línea 3217" d="M7.3.231H0V-.194H7.3Z" transform="translate(0 3.984)" fill="#8f9294"/>
                  </g>
                  <g id="Grupo_1067197" data-name="Grupo 1067197" transform="translate(59.694 0)">
                    <path id="Línea_3218" data-name="Línea 3218" d="M.194,8.006H-.194V0H.194Z" transform="translate(3.651 0)" fill="#8f9294"/>
                    <path id="Línea_3219" data-name="Línea 3219" d="M7.3.231H0V-.194H7.3Z" transform="translate(0 3.984)" fill="#8f9294"/>
                  </g>
                </g>
                <g id="Grupo_1067203" data-name="Grupo 1067203" transform="translate(0 33.224)">
                  <g id="Grupo_1067199" data-name="Grupo 1067199" transform="translate(0 0)">
                    <path id="Línea_3220" data-name="Línea 3220" d="M.194,8.006H-.194V0H.194Z" transform="translate(3.651 0)" fill="#8f9294"/>
                    <path id="Línea_3221" data-name="Línea 3221" d="M7.3.231H0V-.194H7.3Z" transform="translate(0 3.984)" fill="#8f9294"/>
                  </g>
                  <g id="Grupo_1067200" data-name="Grupo 1067200" transform="translate(19.898 0)">
                    <path id="Línea_3222" data-name="Línea 3222" d="M.194,8.006H-.194V0H.194Z" transform="translate(3.651 0)" fill="#8f9294"/>
                    <path id="Línea_3223" data-name="Línea 3223" d="M7.3.231H0V-.194H7.3Z" transform="translate(0 3.984)" fill="#8f9294"/>
                  </g>
                  <g id="Grupo_1067201" data-name="Grupo 1067201" transform="translate(39.796 0)">
                    <path id="Línea_3224" data-name="Línea 3224" d="M.194,8.006H-.194V0H.194Z" transform="translate(3.651 0)" fill="#8f9294"/>
                    <path id="Línea_3225" data-name="Línea 3225" d="M7.3.231H0V-.194H7.3Z" transform="translate(0 3.984)" fill="#8f9294"/>
                  </g>
                  <g id="Grupo_1067202" data-name="Grupo 1067202" transform="translate(59.694 0)">
                    <path id="Línea_3226" data-name="Línea 3226" d="M.194,8.006H-.194V0H.194Z" transform="translate(3.651 0)" fill="#8f9294"/>
                    <path id="Línea_3227" data-name="Línea 3227" d="M7.3.231H0V-.194H7.3Z" transform="translate(0 3.984)" fill="#8f9294"/>
                  </g>
                </g>
                <g id="Grupo_1067208" data-name="Grupo 1067208" transform="translate(0 49.837)">
                  <g id="Grupo_1067204" data-name="Grupo 1067204" transform="translate(0 0)">
                    <path id="Línea_3228" data-name="Línea 3228" d="M.194,8.006H-.194V0H.194Z" transform="translate(3.651 0)" fill="#8f9294"/>
                    <path id="Línea_3229" data-name="Línea 3229" d="M7.3.231H0V-.194H7.3Z" transform="translate(0 3.984)" fill="#8f9294"/>
                  </g>
                  <g id="Grupo_1067205" data-name="Grupo 1067205" transform="translate(19.898 0)">
                    <path id="Línea_3230" data-name="Línea 3230" d="M.194,8.006H-.194V0H.194Z" transform="translate(3.651 0)" fill="#8f9294"/>
                    <path id="Línea_3231" data-name="Línea 3231" d="M7.3.231H0V-.194H7.3Z" transform="translate(0 3.984)" fill="#8f9294"/>
                  </g>
                  <g id="Grupo_1067206" data-name="Grupo 1067206" transform="translate(39.796 0)">
                    <path id="Línea_3232" data-name="Línea 3232" d="M.194,8.006H-.194V0H.194Z" transform="translate(3.651 0)" fill="#8f9294"/>
                    <path id="Línea_3233" data-name="Línea 3233" d="M7.3.231H0V-.194H7.3Z" transform="translate(0 3.984)" fill="#8f9294"/>
                  </g>
                  <g id="Grupo_1067207" data-name="Grupo 1067207" transform="translate(59.694 0)">
                    <path id="Línea_3234" data-name="Línea 3234" d="M.194,8.006H-.194V0H.194Z" transform="translate(3.651 0)" fill="#8f9294"/>
                    <path id="Línea_3235" data-name="Línea 3235" d="M7.3.231H0V-.194H7.3Z" transform="translate(0 3.984)" fill="#8f9294"/>
                  </g>
                </g>
              </g>
              <g id="Grupo_1067230" data-name="Grupo 1067230" transform="translate(148.652 262.644)">
                <g id="Grupo_1067214" data-name="Grupo 1067214" transform="translate(0 0)">
                  <g id="Grupo_1067210" data-name="Grupo 1067210">
                    <path id="Línea_3236" data-name="Línea 3236" d="M.194,8.006H-.194V0H.194Z" transform="translate(3.651 0)" fill="#8f9294"/>
                    <path id="Línea_3237" data-name="Línea 3237" d="M7.3.231H0V-.194H7.3Z" transform="translate(0 3.984)" fill="#8f9294"/>
                  </g>
                  <g id="Grupo_1067211" data-name="Grupo 1067211" transform="translate(19.898)">
                    <path id="Línea_3238" data-name="Línea 3238" d="M.194,8.006H-.194V0H.194Z" transform="translate(3.651 0)" fill="#8f9294"/>
                    <path id="Línea_3239" data-name="Línea 3239" d="M7.3.231H0V-.194H7.3Z" transform="translate(0 3.984)" fill="#8f9294"/>
                  </g>
                  <g id="Grupo_1067212" data-name="Grupo 1067212" transform="translate(39.796)">
                    <path id="Línea_3240" data-name="Línea 3240" d="M.194,8.006H-.194V0H.194Z" transform="translate(3.651 0)" fill="#8f9294"/>
                    <path id="Línea_3241" data-name="Línea 3241" d="M7.3.231H0V-.194H7.3Z" transform="translate(0 3.984)" fill="#8f9294"/>
                  </g>
                  <g id="Grupo_1067213" data-name="Grupo 1067213" transform="translate(59.694)">
                    <path id="Línea_3242" data-name="Línea 3242" d="M.194,8.006H-.194V0H.194Z" transform="translate(3.651 0)" fill="#8f9294"/>
                    <path id="Línea_3243" data-name="Línea 3243" d="M7.3.231H0V-.194H7.3Z" transform="translate(0 3.984)" fill="#8f9294"/>
                  </g>
                </g>
                <g id="Grupo_1067219" data-name="Grupo 1067219" transform="translate(0 16.612)">
                  <g id="Grupo_1067215" data-name="Grupo 1067215" transform="translate(0 0)">
                    <path id="Línea_3244" data-name="Línea 3244" d="M.194,8.006H-.194V0H.194Z" transform="translate(3.651 0)" fill="#8f9294"/>
                    <path id="Línea_3245" data-name="Línea 3245" d="M7.3.231H0V-.194H7.3Z" transform="translate(0 3.984)" fill="#8f9294"/>
                  </g>
                  <g id="Grupo_1067216" data-name="Grupo 1067216" transform="translate(19.898 0)">
                    <path id="Línea_3246" data-name="Línea 3246" d="M.194,8.006H-.194V0H.194Z" transform="translate(3.651 0)" fill="#8f9294"/>
                    <path id="Línea_3247" data-name="Línea 3247" d="M7.3.231H0V-.194H7.3Z" transform="translate(0 3.984)" fill="#8f9294"/>
                  </g>
                  <g id="Grupo_1067217" data-name="Grupo 1067217" transform="translate(39.796 0)">
                    <path id="Línea_3248" data-name="Línea 3248" d="M.194,8.006H-.194V0H.194Z" transform="translate(3.651 0)" fill="#8f9294"/>
                    <path id="Línea_3249" data-name="Línea 3249" d="M7.3.231H0V-.194H7.3Z" transform="translate(0 3.984)" fill="#8f9294"/>
                  </g>
                  <g id="Grupo_1067218" data-name="Grupo 1067218" transform="translate(59.694 0)">
                    <path id="Línea_3250" data-name="Línea 3250" d="M.194,8.006H-.194V0H.194Z" transform="translate(3.651 0)" fill="#8f9294"/>
                    <path id="Línea_3251" data-name="Línea 3251" d="M7.3.231H0V-.194H7.3Z" transform="translate(0 3.984)" fill="#8f9294"/>
                  </g>
                </g>
                <g id="Grupo_1067224" data-name="Grupo 1067224" transform="translate(0 33.224)">
                  <g id="Grupo_1067220" data-name="Grupo 1067220" transform="translate(0 0)">
                    <path id="Línea_3252" data-name="Línea 3252" d="M.194,8.006H-.194V0H.194Z" transform="translate(3.651 0)" fill="#8f9294"/>
                    <path id="Línea_3253" data-name="Línea 3253" d="M7.3.231H0V-.194H7.3Z" transform="translate(0 3.984)" fill="#8f9294"/>
                  </g>
                  <g id="Grupo_1067221" data-name="Grupo 1067221" transform="translate(19.898 0)">
                    <path id="Línea_3254" data-name="Línea 3254" d="M.194,8.006H-.194V0H.194Z" transform="translate(3.651 0)" fill="#8f9294"/>
                    <path id="Línea_3255" data-name="Línea 3255" d="M7.3.231H0V-.194H7.3Z" transform="translate(0 3.984)" fill="#8f9294"/>
                  </g>
                  <g id="Grupo_1067222" data-name="Grupo 1067222" transform="translate(39.796 0)">
                    <path id="Línea_3256" data-name="Línea 3256" d="M.194,8.006H-.194V0H.194Z" transform="translate(3.651 0)" fill="#8f9294"/>
                    <path id="Línea_3257" data-name="Línea 3257" d="M7.3.231H0V-.194H7.3Z" transform="translate(0 3.984)" fill="#8f9294"/>
                  </g>
                  <g id="Grupo_1067223" data-name="Grupo 1067223" transform="translate(59.694 0)">
                    <path id="Línea_3258" data-name="Línea 3258" d="M.194,8.006H-.194V0H.194Z" transform="translate(3.651 0)" fill="#8f9294"/>
                    <path id="Línea_3259" data-name="Línea 3259" d="M7.3.231H0V-.194H7.3Z" transform="translate(0 3.984)" fill="#8f9294"/>
                  </g>
                </g>
                <g id="Grupo_1067229" data-name="Grupo 1067229" transform="translate(0 49.837)">
                  <g id="Grupo_1067225" data-name="Grupo 1067225" transform="translate(0 0)">
                    <path id="Línea_3260" data-name="Línea 3260" d="M.194,8.006H-.194V0H.194Z" transform="translate(3.651 0)" fill="#8f9294"/>
                    <path id="Línea_3261" data-name="Línea 3261" d="M7.3.231H0V-.194H7.3Z" transform="translate(0 3.984)" fill="#8f9294"/>
                  </g>
                  <g id="Grupo_1067226" data-name="Grupo 1067226" transform="translate(19.898 0)">
                    <path id="Línea_3262" data-name="Línea 3262" d="M.194,8.006H-.194V0H.194Z" transform="translate(3.651 0)" fill="#8f9294"/>
                    <path id="Línea_3263" data-name="Línea 3263" d="M7.3.231H0V-.194H7.3Z" transform="translate(0 3.984)" fill="#8f9294"/>
                  </g>
                  <g id="Grupo_1067227" data-name="Grupo 1067227" transform="translate(39.796 0)">
                    <path id="Línea_3264" data-name="Línea 3264" d="M.194,8.006H-.194V0H.194Z" transform="translate(3.651 0)" fill="#8f9294"/>
                    <path id="Línea_3265" data-name="Línea 3265" d="M7.3.231H0V-.194H7.3Z" transform="translate(0 3.984)" fill="#8f9294"/>
                  </g>
                  <g id="Grupo_1067228" data-name="Grupo 1067228" transform="translate(59.694 0)">
                    <path id="Línea_3266" data-name="Línea 3266" d="M.194,8.006H-.194V0H.194Z" transform="translate(3.651 0)" fill="#8f9294"/>
                    <path id="Línea_3267" data-name="Línea 3267" d="M7.3.231H0V-.194H7.3Z" transform="translate(0 3.984)" fill="#8f9294"/>
                  </g>
                </g>
              </g>
              <g id="Grupo_1067251" data-name="Grupo 1067251" transform="translate(194.232 0)">
                <g id="Grupo_1067235" data-name="Grupo 1067235" transform="translate(0 0)">
                  <g id="Grupo_1067231" data-name="Grupo 1067231">
                    <path id="Línea_3300" data-name="Línea 3300" d="M.194,8.006H-.194V0H.194Z" transform="translate(3.651 0)" fill="#8f9294"/>
                    <path id="Línea_3301" data-name="Línea 3301" d="M7.3.231H0V-.194H7.3Z" transform="translate(0 3.984)" fill="#8f9294"/>
                  </g>
                  <g id="Grupo_1067232" data-name="Grupo 1067232" transform="translate(19.898)">
                    <path id="Línea_3302" data-name="Línea 3302" d="M.194,8.006H-.194V0H.194Z" transform="translate(3.651 0)" fill="#8f9294"/>
                    <path id="Línea_3303" data-name="Línea 3303" d="M7.3.231H0V-.194H7.3Z" transform="translate(0 3.984)" fill="#8f9294"/>
                  </g>
                  <g id="Grupo_1067233" data-name="Grupo 1067233" transform="translate(39.796)">
                    <path id="Línea_3304" data-name="Línea 3304" d="M.194,8.006H-.194V0H.194Z" transform="translate(3.651 0)" fill="#8f9294"/>
                    <path id="Línea_3305" data-name="Línea 3305" d="M7.3.231H0V-.194H7.3Z" transform="translate(0 3.984)" fill="#8f9294"/>
                  </g>
                  <g id="Grupo_1067234" data-name="Grupo 1067234" transform="translate(59.694)">
                    <path id="Línea_3306" data-name="Línea 3306" d="M.194,8.006H-.194V0H.194Z" transform="translate(3.651 0)" fill="#8f9294"/>
                    <path id="Línea_3307" data-name="Línea 3307" d="M7.3.231H0V-.194H7.3Z" transform="translate(0 3.984)" fill="#8f9294"/>
                  </g>
                </g>
                <g id="Grupo_1067240" data-name="Grupo 1067240" transform="translate(0 16.612)">
                  <g id="Grupo_1067236" data-name="Grupo 1067236" transform="translate(0 0)">
                    <path id="Línea_3308" data-name="Línea 3308" d="M.194,8.006H-.194V0H.194Z" transform="translate(3.651 0)" fill="#8f9294"/>
                    <path id="Línea_3309" data-name="Línea 3309" d="M7.3.231H0V-.194H7.3Z" transform="translate(0 3.984)" fill="#8f9294"/>
                  </g>
                  <g id="Grupo_1067237" data-name="Grupo 1067237" transform="translate(19.898 0)">
                    <path id="Línea_3310" data-name="Línea 3310" d="M.194,8.006H-.194V0H.194Z" transform="translate(3.651 0)" fill="#8f9294"/>
                    <path id="Línea_3311" data-name="Línea 3311" d="M7.3.231H0V-.194H7.3Z" transform="translate(0 3.984)" fill="#8f9294"/>
                  </g>
                  <g id="Grupo_1067238" data-name="Grupo 1067238" transform="translate(39.796 0)">
                    <path id="Línea_3312" data-name="Línea 3312" d="M.194,8.006H-.194V0H.194Z" transform="translate(3.651 0)" fill="#8f9294"/>
                    <path id="Línea_3313" data-name="Línea 3313" d="M7.3.231H0V-.194H7.3Z" transform="translate(0 3.984)" fill="#8f9294"/>
                  </g>
                  <g id="Grupo_1067239" data-name="Grupo 1067239" transform="translate(59.694 0)">
                    <path id="Línea_3314" data-name="Línea 3314" d="M.194,8.006H-.194V0H.194Z" transform="translate(3.651 0)" fill="#8f9294"/>
                    <path id="Línea_3315" data-name="Línea 3315" d="M7.3.231H0V-.194H7.3Z" transform="translate(0 3.984)" fill="#8f9294"/>
                  </g>
                </g>
                <g id="Grupo_1067245" data-name="Grupo 1067245" transform="translate(0 33.224)">
                  <g id="Grupo_1067241" data-name="Grupo 1067241" transform="translate(0 0)">
                    <path id="Línea_3316" data-name="Línea 3316" d="M.194,8.006H-.194V0H.194Z" transform="translate(3.651 0)" fill="#8f9294"/>
                    <path id="Línea_3317" data-name="Línea 3317" d="M7.3.231H0V-.194H7.3Z" transform="translate(0 3.984)" fill="#8f9294"/>
                  </g>
                  <g id="Grupo_1067242" data-name="Grupo 1067242" transform="translate(19.898 0)">
                    <path id="Línea_3318" data-name="Línea 3318" d="M.194,8.006H-.194V0H.194Z" transform="translate(3.651 0)" fill="#8f9294"/>
                    <path id="Línea_3319" data-name="Línea 3319" d="M7.3.231H0V-.194H7.3Z" transform="translate(0 3.984)" fill="#8f9294"/>
                  </g>
                  <g id="Grupo_1067243" data-name="Grupo 1067243" transform="translate(39.796 0)">
                    <path id="Línea_3320" data-name="Línea 3320" d="M.194,8.006H-.194V0H.194Z" transform="translate(3.651 0)" fill="#8f9294"/>
                    <path id="Línea_3321" data-name="Línea 3321" d="M7.3.231H0V-.194H7.3Z" transform="translate(0 3.984)" fill="#8f9294"/>
                  </g>
                  <g id="Grupo_1067244" data-name="Grupo 1067244" transform="translate(59.694 0)">
                    <path id="Línea_3322" data-name="Línea 3322" d="M.194,8.006H-.194V0H.194Z" transform="translate(3.651 0)" fill="#8f9294"/>
                    <path id="Línea_3323" data-name="Línea 3323" d="M7.3.231H0V-.194H7.3Z" transform="translate(0 3.984)" fill="#8f9294"/>
                  </g>
                </g>
                <g id="Grupo_1067250" data-name="Grupo 1067250" transform="translate(0 49.837)">
                  <g id="Grupo_1067246" data-name="Grupo 1067246" transform="translate(0 0)">
                    <path id="Línea_3324" data-name="Línea 3324" d="M.194,8.006H-.194V0H.194Z" transform="translate(3.651 0)" fill="#8f9294"/>
                    <path id="Línea_3325" data-name="Línea 3325" d="M7.3.231H0V-.194H7.3Z" transform="translate(0 3.984)" fill="#8f9294"/>
                  </g>
                  <g id="Grupo_1067247" data-name="Grupo 1067247" transform="translate(19.898 0)">
                    <path id="Línea_3326" data-name="Línea 3326" d="M.194,8.006H-.194V0H.194Z" transform="translate(3.651 0)" fill="#8f9294"/>
                    <path id="Línea_3327" data-name="Línea 3327" d="M7.3.231H0V-.194H7.3Z" transform="translate(0 3.984)" fill="#8f9294"/>
                  </g>
                  <g id="Grupo_1067248" data-name="Grupo 1067248" transform="translate(39.796 0)">
                    <path id="Línea_3328" data-name="Línea 3328" d="M.194,8.006H-.194V0H.194Z" transform="translate(3.651 0)" fill="#8f9294"/>
                    <path id="Línea_3329" data-name="Línea 3329" d="M7.3.231H0V-.194H7.3Z" transform="translate(0 3.984)" fill="#8f9294"/>
                  </g>
                  <g id="Grupo_1067249" data-name="Grupo 1067249" transform="translate(59.694 0)">
                    <path id="Línea_3330" data-name="Línea 3330" d="M.194,8.006H-.194V0H.194Z" transform="translate(3.651 0)" fill="#8f9294"/>
                    <path id="Línea_3331" data-name="Línea 3331" d="M7.3.231H0V-.194H7.3Z" transform="translate(0 3.984)" fill="#8f9294"/>
                  </g>
                </g>
              </g>
              <g id="Grupo_1067272" data-name="Grupo 1067272" transform="translate(954.689 112.973)">
                <g id="Grupo_1067256" data-name="Grupo 1067256" transform="translate(0 0)">
                  <g id="Grupo_1067252" data-name="Grupo 1067252">
                    <path id="Línea_3300-2" data-name="Línea 3300" d="M.194,5.521H-.194V0H.194Z" transform="translate(2.518 0)" fill="#8f9294"/>
                    <path id="Línea_3301-2" data-name="Línea 3301" d="M5.036.231H0V-.194H5.036Z" transform="translate(0 2.742)" fill="#8f9294"/>
                  </g>
                  <g id="Grupo_1067253" data-name="Grupo 1067253" transform="translate(13.722)">
                    <path id="Línea_3302-2" data-name="Línea 3302" d="M.194,5.521H-.194V0H.194Z" transform="translate(2.518 0)" fill="#8f9294"/>
                    <path id="Línea_3303-2" data-name="Línea 3303" d="M5.035.231H0V-.194H5.035Z" transform="translate(0 2.742)" fill="#8f9294"/>
                  </g>
                  <g id="Grupo_1067254" data-name="Grupo 1067254" transform="translate(27.444)">
                    <path id="Línea_3304-2" data-name="Línea 3304" d="M.194,5.521H-.194V0H.194Z" transform="translate(2.518 0)" fill="#8f9294"/>
                    <path id="Línea_3305-2" data-name="Línea 3305" d="M5.036.231H0V-.194H5.036Z" transform="translate(0 2.742)" fill="#8f9294"/>
                  </g>
                  <g id="Grupo_1067255" data-name="Grupo 1067255" transform="translate(41.165)">
                    <path id="Línea_3306-2" data-name="Línea 3306" d="M.194,5.521H-.194V0H.194Z" transform="translate(2.518 0)" fill="#8f9294"/>
                    <path id="Línea_3307-2" data-name="Línea 3307" d="M5.036.231H0V-.194H5.036Z" transform="translate(0 2.742)" fill="#8f9294"/>
                  </g>
                </g>
                <g id="Grupo_1067261" data-name="Grupo 1067261" transform="translate(0 11.456)">
                  <g id="Grupo_1067257" data-name="Grupo 1067257" transform="translate(0 0)">
                    <path id="Línea_3308-2" data-name="Línea 3308" d="M.194,5.521H-.194V0H.194Z" transform="translate(2.518 0)" fill="#8f9294"/>
                    <path id="Línea_3309-2" data-name="Línea 3309" d="M5.036.231H0V-.194H5.036Z" transform="translate(0 2.742)" fill="#8f9294"/>
                  </g>
                  <g id="Grupo_1067258" data-name="Grupo 1067258" transform="translate(13.722 0)">
                    <path id="Línea_3310-2" data-name="Línea 3310" d="M.194,5.521H-.194V0H.194Z" transform="translate(2.518 0)" fill="#8f9294"/>
                    <path id="Línea_3311-2" data-name="Línea 3311" d="M5.035.231H0V-.194H5.035Z" transform="translate(0 2.742)" fill="#8f9294"/>
                  </g>
                  <g id="Grupo_1067259" data-name="Grupo 1067259" transform="translate(27.444 0)">
                    <path id="Línea_3312-2" data-name="Línea 3312" d="M.194,5.521H-.194V0H.194Z" transform="translate(2.518 0)" fill="#8f9294"/>
                    <path id="Línea_3313-2" data-name="Línea 3313" d="M5.036.231H0V-.194H5.036Z" transform="translate(0 2.742)" fill="#8f9294"/>
                  </g>
                  <g id="Grupo_1067260" data-name="Grupo 1067260" transform="translate(41.165 0)">
                    <path id="Línea_3314-2" data-name="Línea 3314" d="M.194,5.521H-.194V0H.194Z" transform="translate(2.518 0)" fill="#8f9294"/>
                    <path id="Línea_3315-2" data-name="Línea 3315" d="M5.036.231H0V-.194H5.036Z" transform="translate(0 2.742)" fill="#8f9294"/>
                  </g>
                </g>
                <g id="Grupo_1067266" data-name="Grupo 1067266" transform="translate(0 22.912)">
                  <g id="Grupo_1067262" data-name="Grupo 1067262" transform="translate(0 0)">
                    <path id="Línea_3316-2" data-name="Línea 3316" d="M.194,5.521H-.194V0H.194Z" transform="translate(2.518 0)" fill="#8f9294"/>
                    <path id="Línea_3317-2" data-name="Línea 3317" d="M5.036.231H0V-.194H5.036Z" transform="translate(0 2.742)" fill="#8f9294"/>
                  </g>
                  <g id="Grupo_1067263" data-name="Grupo 1067263" transform="translate(13.722 0)">
                    <path id="Línea_3318-2" data-name="Línea 3318" d="M.194,5.521H-.194V0H.194Z" transform="translate(2.518 0)" fill="#8f9294"/>
                    <path id="Línea_3319-2" data-name="Línea 3319" d="M5.035.231H0V-.194H5.035Z" transform="translate(0 2.742)" fill="#8f9294"/>
                  </g>
                  <g id="Grupo_1067264" data-name="Grupo 1067264" transform="translate(27.444 0)">
                    <path id="Línea_3320-2" data-name="Línea 3320" d="M.194,5.521H-.194V0H.194Z" transform="translate(2.518 0)" fill="#8f9294"/>
                    <path id="Línea_3321-2" data-name="Línea 3321" d="M5.036.231H0V-.194H5.036Z" transform="translate(0 2.742)" fill="#8f9294"/>
                  </g>
                  <g id="Grupo_1067265" data-name="Grupo 1067265" transform="translate(41.165 0)">
                    <path id="Línea_3322-2" data-name="Línea 3322" d="M.194,5.521H-.194V0H.194Z" transform="translate(2.518 0)" fill="#8f9294"/>
                    <path id="Línea_3323-2" data-name="Línea 3323" d="M5.036.231H0V-.194H5.036Z" transform="translate(0 2.742)" fill="#8f9294"/>
                  </g>
                </g>
                <g id="Grupo_1067271" data-name="Grupo 1067271" transform="translate(0 34.368)">
                  <g id="Grupo_1067267" data-name="Grupo 1067267" transform="translate(0 0)">
                    <path id="Línea_3324-2" data-name="Línea 3324" d="M.194,5.521H-.194V0H.194Z" transform="translate(2.518 0)" fill="#8f9294"/>
                    <path id="Línea_3325-2" data-name="Línea 3325" d="M5.036.231H0V-.194H5.036Z" transform="translate(0 2.742)" fill="#8f9294"/>
                  </g>
                  <g id="Grupo_1067268" data-name="Grupo 1067268" transform="translate(13.722 0)">
                    <path id="Línea_3326-2" data-name="Línea 3326" d="M.194,5.521H-.194V0H.194Z" transform="translate(2.518 0)" fill="#8f9294"/>
                    <path id="Línea_3327-2" data-name="Línea 3327" d="M5.035.231H0V-.194H5.035Z" transform="translate(0 2.742)" fill="#8f9294"/>
                  </g>
                  <g id="Grupo_1067269" data-name="Grupo 1067269" transform="translate(27.444 0)">
                    <path id="Línea_3328-2" data-name="Línea 3328" d="M.194,5.521H-.194V0H.194Z" transform="translate(2.518 0)" fill="#8f9294"/>
                    <path id="Línea_3329-2" data-name="Línea 3329" d="M5.036.231H0V-.194H5.036Z" transform="translate(0 2.742)" fill="#8f9294"/>
                  </g>
                  <g id="Grupo_1067270" data-name="Grupo 1067270" transform="translate(41.165 0)">
                    <path id="Línea_3330-2" data-name="Línea 3330" d="M.194,5.521H-.194V0H.194Z" transform="translate(2.518 0)" fill="#8f9294"/>
                    <path id="Línea_3331-2" data-name="Línea 3331" d="M5.036.231H0V-.194H5.036Z" transform="translate(0 2.742)" fill="#8f9294"/>
                  </g>
                </g>
              </g>
              <g id="Grupo_1067293" data-name="Grupo 1067293" transform="translate(1336.231 694.859)">
                <g id="Grupo_1067277" data-name="Grupo 1067277" transform="translate(0 0)">
                  <g id="Grupo_1067273" data-name="Grupo 1067273">
                    <path id="Línea_3364" data-name="Línea 3364" d="M.194,8.006H-.194V0H.194Z" transform="translate(3.651 0)" fill="#8f9294"/>
                    <path id="Línea_3365" data-name="Línea 3365" d="M7.3.231H0V-.194H7.3Z" transform="translate(0 3.984)" fill="#8f9294"/>
                  </g>
                  <g id="Grupo_1067274" data-name="Grupo 1067274" transform="translate(19.898)">
                    <path id="Línea_3366" data-name="Línea 3366" d="M.194,8.006H-.194V0H.194Z" transform="translate(3.651 0)" fill="#8f9294"/>
                    <path id="Línea_3367" data-name="Línea 3367" d="M7.3.231H0V-.194H7.3Z" transform="translate(0 3.984)" fill="#8f9294"/>
                  </g>
                  <g id="Grupo_1067275" data-name="Grupo 1067275" transform="translate(39.796)">
                    <path id="Línea_3368" data-name="Línea 3368" d="M.194,8.006H-.194V0H.194Z" transform="translate(3.651 0)" fill="#8f9294"/>
                    <path id="Línea_3369" data-name="Línea 3369" d="M7.3.231H0V-.194H7.3Z" transform="translate(0 3.984)" fill="#8f9294"/>
                  </g>
                  <g id="Grupo_1067276" data-name="Grupo 1067276" transform="translate(59.694)">
                    <path id="Línea_3370" data-name="Línea 3370" d="M.194,8.006H-.194V0H.194Z" transform="translate(3.651 0)" fill="#8f9294"/>
                    <path id="Línea_3371" data-name="Línea 3371" d="M7.3.231H0V-.194H7.3Z" transform="translate(0 3.984)" fill="#8f9294"/>
                  </g>
                </g>
                <g id="Grupo_1067282" data-name="Grupo 1067282" transform="translate(0 16.612)">
                  <g id="Grupo_1067278" data-name="Grupo 1067278" transform="translate(0 0)">
                    <path id="Línea_3372" data-name="Línea 3372" d="M.194,8.006H-.194V0H.194Z" transform="translate(3.651 0)" fill="#8f9294"/>
                    <path id="Línea_3373" data-name="Línea 3373" d="M7.3.231H0V-.194H7.3Z" transform="translate(0 3.984)" fill="#8f9294"/>
                  </g>
                  <g id="Grupo_1067279" data-name="Grupo 1067279" transform="translate(19.898 0)">
                    <path id="Línea_3374" data-name="Línea 3374" d="M.194,8.006H-.194V0H.194Z" transform="translate(3.651 0)" fill="#8f9294"/>
                    <path id="Línea_3375" data-name="Línea 3375" d="M7.3.231H0V-.194H7.3Z" transform="translate(0 3.984)" fill="#8f9294"/>
                  </g>
                  <g id="Grupo_1067280" data-name="Grupo 1067280" transform="translate(39.796 0)">
                    <path id="Línea_3376" data-name="Línea 3376" d="M.194,8.006H-.194V0H.194Z" transform="translate(3.651 0)" fill="#8f9294"/>
                    <path id="Línea_3377" data-name="Línea 3377" d="M7.3.231H0V-.194H7.3Z" transform="translate(0 3.984)" fill="#8f9294"/>
                  </g>
                  <g id="Grupo_1067281" data-name="Grupo 1067281" transform="translate(59.694 0)">
                    <path id="Línea_3378" data-name="Línea 3378" d="M.194,8.006H-.194V0H.194Z" transform="translate(3.651 0)" fill="#8f9294"/>
                    <path id="Línea_3379" data-name="Línea 3379" d="M7.3.231H0V-.194H7.3Z" transform="translate(0 3.984)" fill="#8f9294"/>
                  </g>
                </g>
                <g id="Grupo_1067287" data-name="Grupo 1067287" transform="translate(0 33.224)">
                  <g id="Grupo_1067283" data-name="Grupo 1067283" transform="translate(0 0)">
                    <path id="Línea_3380" data-name="Línea 3380" d="M.194,8.006H-.194V0H.194Z" transform="translate(3.651 0)" fill="#8f9294"/>
                    <path id="Línea_3381" data-name="Línea 3381" d="M7.3.231H0V-.194H7.3Z" transform="translate(0 3.984)" fill="#8f9294"/>
                  </g>
                  <g id="Grupo_1067284" data-name="Grupo 1067284" transform="translate(19.898 0)">
                    <path id="Línea_3382" data-name="Línea 3382" d="M.194,8.006H-.194V0H.194Z" transform="translate(3.651 0)" fill="#8f9294"/>
                    <path id="Línea_3383" data-name="Línea 3383" d="M7.3.231H0V-.194H7.3Z" transform="translate(0 3.984)" fill="#8f9294"/>
                  </g>
                  <g id="Grupo_1067285" data-name="Grupo 1067285" transform="translate(39.796 0)">
                    <path id="Línea_3384" data-name="Línea 3384" d="M.194,8.006H-.194V0H.194Z" transform="translate(3.651 0)" fill="#8f9294"/>
                    <path id="Línea_3385" data-name="Línea 3385" d="M7.3.231H0V-.194H7.3Z" transform="translate(0 3.984)" fill="#8f9294"/>
                  </g>
                  <g id="Grupo_1067286" data-name="Grupo 1067286" transform="translate(59.694 0)">
                    <path id="Línea_3386" data-name="Línea 3386" d="M.194,8.006H-.194V0H.194Z" transform="translate(3.651 0)" fill="#8f9294"/>
                    <path id="Línea_3387" data-name="Línea 3387" d="M7.3.231H0V-.194H7.3Z" transform="translate(0 3.984)" fill="#8f9294"/>
                  </g>
                </g>
                <g id="Grupo_1067292" data-name="Grupo 1067292" transform="translate(0 49.837)">
                  <g id="Grupo_1067288" data-name="Grupo 1067288" transform="translate(0 0)">
                    <path id="Línea_3388" data-name="Línea 3388" d="M.194,8.006H-.194V0H.194Z" transform="translate(3.651 0)" fill="#8f9294"/>
                    <path id="Línea_3389" data-name="Línea 3389" d="M7.3.231H0V-.194H7.3Z" transform="translate(0 3.984)" fill="#8f9294"/>
                  </g>
                  <g id="Grupo_1067289" data-name="Grupo 1067289" transform="translate(19.898 0)">
                    <path id="Línea_3390" data-name="Línea 3390" d="M.194,8.006H-.194V0H.194Z" transform="translate(3.651 0)" fill="#8f9294"/>
                    <path id="Línea_3391" data-name="Línea 3391" d="M7.3.231H0V-.194H7.3Z" transform="translate(0 3.984)" fill="#8f9294"/>
                  </g>
                  <g id="Grupo_1067290" data-name="Grupo 1067290" transform="translate(39.796 0)">
                    <path id="Línea_3392" data-name="Línea 3392" d="M.194,8.006H-.194V0H.194Z" transform="translate(3.651 0)" fill="#8f9294"/>
                    <path id="Línea_3393" data-name="Línea 3393" d="M7.3.231H0V-.194H7.3Z" transform="translate(0 3.984)" fill="#8f9294"/>
                  </g>
                  <g id="Grupo_1067291" data-name="Grupo 1067291" transform="translate(59.694 0)">
                    <path id="Línea_3394" data-name="Línea 3394" d="M.194,8.006H-.194V0H.194Z" transform="translate(3.651 0)" fill="#8f9294"/>
                    <path id="Línea_3395" data-name="Línea 3395" d="M7.3.231H0V-.194H7.3Z" transform="translate(0 3.984)" fill="#8f9294"/>
                  </g>
                </g>
              </g>
              <g id="Grupo_1067314" data-name="Grupo 1067314" transform="translate(578.235 577.292)">
                <g id="Grupo_1067298" data-name="Grupo 1067298" transform="translate(0 0)">
                  <g id="Grupo_1067294" data-name="Grupo 1067294">
                    <path id="Línea_3396" data-name="Línea 3396" d="M.194,8.006H-.194V0H.194Z" transform="translate(3.651 0)" fill="#8f9294"/>
                    <path id="Línea_3397" data-name="Línea 3397" d="M7.3.231H0V-.194H7.3Z" transform="translate(0 3.984)" fill="#8f9294"/>
                  </g>
                  <g id="Grupo_1067295" data-name="Grupo 1067295" transform="translate(19.898)">
                    <path id="Línea_3398" data-name="Línea 3398" d="M.194,8.006H-.194V0H.194Z" transform="translate(3.651 0)" fill="#8f9294"/>
                    <path id="Línea_3399" data-name="Línea 3399" d="M7.3.231H0V-.194H7.3Z" transform="translate(0 3.984)" fill="#8f9294"/>
                  </g>
                  <g id="Grupo_1067296" data-name="Grupo 1067296" transform="translate(39.796)">
                    <path id="Línea_3400" data-name="Línea 3400" d="M.194,8.006H-.194V0H.194Z" transform="translate(3.651 0)" fill="#8f9294"/>
                    <path id="Línea_3401" data-name="Línea 3401" d="M7.3.231H0V-.194H7.3Z" transform="translate(0 3.984)" fill="#8f9294"/>
                  </g>
                  <g id="Grupo_1067297" data-name="Grupo 1067297" transform="translate(59.694)">
                    <path id="Línea_3402" data-name="Línea 3402" d="M.194,8.006H-.194V0H.194Z" transform="translate(3.651 0)" fill="#8f9294"/>
                    <path id="Línea_3403" data-name="Línea 3403" d="M7.3.231H0V-.194H7.3Z" transform="translate(0 3.984)" fill="#8f9294"/>
                  </g>
                </g>
                <g id="Grupo_1067303" data-name="Grupo 1067303" transform="translate(0 16.612)">
                  <g id="Grupo_1067299" data-name="Grupo 1067299" transform="translate(0 0)">
                    <path id="Línea_3404" data-name="Línea 3404" d="M.194,8.006H-.194V0H.194Z" transform="translate(3.651 0)" fill="#8f9294"/>
                    <path id="Línea_3405" data-name="Línea 3405" d="M7.3.231H0V-.194H7.3Z" transform="translate(0 3.984)" fill="#8f9294"/>
                  </g>
                  <g id="Grupo_1067300" data-name="Grupo 1067300" transform="translate(19.898 0)">
                    <path id="Línea_3406" data-name="Línea 3406" d="M.194,8.006H-.194V0H.194Z" transform="translate(3.651 0)" fill="#8f9294"/>
                    <path id="Línea_3407" data-name="Línea 3407" d="M7.3.231H0V-.194H7.3Z" transform="translate(0 3.984)" fill="#8f9294"/>
                  </g>
                  <g id="Grupo_1067301" data-name="Grupo 1067301" transform="translate(39.796 0)">
                    <path id="Línea_3408" data-name="Línea 3408" d="M.194,8.006H-.194V0H.194Z" transform="translate(3.651 0)" fill="#8f9294"/>
                    <path id="Línea_3409" data-name="Línea 3409" d="M7.3.231H0V-.194H7.3Z" transform="translate(0 3.984)" fill="#8f9294"/>
                  </g>
                  <g id="Grupo_1067302" data-name="Grupo 1067302" transform="translate(59.694 0)">
                    <path id="Línea_3410" data-name="Línea 3410" d="M.194,8.006H-.194V0H.194Z" transform="translate(3.651 0)" fill="#8f9294"/>
                    <path id="Línea_3411" data-name="Línea 3411" d="M7.3.231H0V-.194H7.3Z" transform="translate(0 3.984)" fill="#8f9294"/>
                  </g>
                </g>
                <g id="Grupo_1067308" data-name="Grupo 1067308" transform="translate(0 33.224)">
                  <g id="Grupo_1067304" data-name="Grupo 1067304" transform="translate(0 0)">
                    <path id="Línea_3412" data-name="Línea 3412" d="M.194,8.006H-.194V0H.194Z" transform="translate(3.651 0)" fill="#8f9294"/>
                    <path id="Línea_3413" data-name="Línea 3413" d="M7.3.231H0V-.194H7.3Z" transform="translate(0 3.984)" fill="#8f9294"/>
                  </g>
                  <g id="Grupo_1067305" data-name="Grupo 1067305" transform="translate(19.898 0)">
                    <path id="Línea_3414" data-name="Línea 3414" d="M.194,8.006H-.194V0H.194Z" transform="translate(3.651 0)" fill="#8f9294"/>
                    <path id="Línea_3415" data-name="Línea 3415" d="M7.3.231H0V-.194H7.3Z" transform="translate(0 3.984)" fill="#8f9294"/>
                  </g>
                  <g id="Grupo_1067306" data-name="Grupo 1067306" transform="translate(39.796 0)">
                    <path id="Línea_3416" data-name="Línea 3416" d="M.194,8.006H-.194V0H.194Z" transform="translate(3.651 0)" fill="#8f9294"/>
                    <path id="Línea_3417" data-name="Línea 3417" d="M7.3.231H0V-.194H7.3Z" transform="translate(0 3.984)" fill="#8f9294"/>
                  </g>
                  <g id="Grupo_1067307" data-name="Grupo 1067307" transform="translate(59.694 0)">
                    <path id="Línea_3418" data-name="Línea 3418" d="M.194,8.006H-.194V0H.194Z" transform="translate(3.651 0)" fill="#8f9294"/>
                    <path id="Línea_3419" data-name="Línea 3419" d="M7.3.231H0V-.194H7.3Z" transform="translate(0 3.984)" fill="#8f9294"/>
                  </g>
                </g>
                <g id="Grupo_1067313" data-name="Grupo 1067313" transform="translate(0 49.837)">
                  <g id="Grupo_1067309" data-name="Grupo 1067309" transform="translate(0 0)">
                    <path id="Línea_3420" data-name="Línea 3420" d="M.194,8.006H-.194V0H.194Z" transform="translate(3.651 0)" fill="#8f9294"/>
                    <path id="Línea_3421" data-name="Línea 3421" d="M7.3.231H0V-.194H7.3Z" transform="translate(0 3.984)" fill="#8f9294"/>
                  </g>
                  <g id="Grupo_1067310" data-name="Grupo 1067310" transform="translate(19.898 0)">
                    <path id="Línea_3422" data-name="Línea 3422" d="M.194,8.006H-.194V0H.194Z" transform="translate(3.651 0)" fill="#8f9294"/>
                    <path id="Línea_3423" data-name="Línea 3423" d="M7.3.231H0V-.194H7.3Z" transform="translate(0 3.984)" fill="#8f9294"/>
                  </g>
                  <g id="Grupo_1067311" data-name="Grupo 1067311" transform="translate(39.796 0)">
                    <path id="Línea_3424" data-name="Línea 3424" d="M.194,8.006H-.194V0H.194Z" transform="translate(3.651 0)" fill="#8f9294"/>
                    <path id="Línea_3425" data-name="Línea 3425" d="M7.3.231H0V-.194H7.3Z" transform="translate(0 3.984)" fill="#8f9294"/>
                  </g>
                  <g id="Grupo_1067312" data-name="Grupo 1067312" transform="translate(59.694 0)">
                    <path id="Línea_3426" data-name="Línea 3426" d="M.194,8.006H-.194V0H.194Z" transform="translate(3.651 0)" fill="#8f9294"/>
                    <path id="Línea_3427" data-name="Línea 3427" d="M7.3.231H0V-.194H7.3Z" transform="translate(0 3.984)" fill="#8f9294"/>
                  </g>
                </g>
              </g>
              <path id="Rectángulo_373835" data-name="Rectángulo 373835" d="M0-.5H117.765a.526.526,0,0,1,.5.548V10.874a.526.526,0,0,1-.5.548H0a.526.526,0,0,1-.5-.548V.048A.526.526,0,0,1,0-.5ZM117.265.6H.5v9.73H117.265Z" transform="translate(1508.936 689.739)" fill="#8f9294"/>
              <path id="Rectángulo_373837" data-name="Rectángulo 373837" d="M0-.5H117.765a.526.526,0,0,1,.5.548V10.874a.526.526,0,0,1-.5.548H0a.526.526,0,0,1-.5-.548V.048A.526.526,0,0,1,0-.5ZM117.265.6H.5v9.73H117.265Z" transform="translate(987.024 574.746)" fill="#8f9294"/>
              <path id="Rectángulo_373838" data-name="Rectángulo 373838" d="M0-.5H117.765a.526.526,0,0,1,.5.548V10.874a.526.526,0,0,1-.5.548H0a.526.526,0,0,1-.5-.548V.048A.526.526,0,0,1,0-.5ZM117.265.6H.5v9.73H117.265Z" transform="translate(402.023 12.294)" fill="#8f9294" opacity="0.69"/>
              <path id="Rectángulo_373839" data-name="Rectángulo 373839" d="M0-.5H117.765a.526.526,0,0,1,.5.548V10.874a.526.526,0,0,1-.5.548H0a.526.526,0,0,1-.5-.548V.048A.526.526,0,0,1,0-.5ZM117.265.6H.5v9.73H117.265Z" transform="translate(310.023 348.494)" fill="#8f9294" opacity="0.69"/>
              <path id="Rectángulo_373840" data-name="Rectángulo 373840" d="M0-.5H117.765a.526.526,0,0,1,.5.548V10.874a.526.526,0,0,1-.5.548H0a.526.526,0,0,1-.5-.548V.048A.526.526,0,0,1,0-.5ZM117.265.6H.5v9.73H117.265Z" transform="translate(1367.602 196.489)" fill="#8f9294"/>
              <g id="Grupo_1067316" data-name="Grupo 1067316" transform="translate(1364.854 43.759)">
                <g id="Grupo_1067315" data-name="Grupo 1067315" transform="translate(0 0)" clip-path="url(#clip-path-6)">
                  <path id="Trazado_775133" data-name="Trazado 775133" d="M464.049,187.164l-.477-.491c7.49-8.749,15.384-17.311,23.019-25.591,7.427-8.055,15.107-16.384,22.392-24.862l.476.492c-7.292,8.487-14.977,16.821-22.408,24.88C479.42,169.868,471.53,178.425,464.049,187.164Z" transform="translate(-469.553 -139.213)" fill="#606060"/>
                  <path id="Trazado_775134" data-name="Trazado 775134" d="M464,193.879l-.464-.507c6.12-6.736,12.475-13.543,18.62-20.127,11.274-12.077,22.931-24.566,33.577-37.075l.479.49c-10.656,12.521-22.319,25.016-33.6,37.1C476.474,180.34,470.121,187.146,464,193.879Z" transform="translate(-469.552 -139.216)" fill="#606060"/>
                  <path id="Trazado_775135" data-name="Trazado 775135" d="M463.875,200.917l-.463-.507c16.8-18.435,34.868-38.246,58.58-64.237l.463.508C498.743,162.671,480.677,182.482,463.875,200.917Z" transform="translate(-469.548 -139.217)" fill="#606060"/>
                  <path id="Trazado_775136" data-name="Trazado 775136" d="M463.926,207.778l-.463-.508c19.4-21.254,39.965-43.8,64.724-70.952l.463.507C503.892,163.978,483.325,186.524,463.926,207.778Z" transform="translate(-469.55 -139.207)" fill="#606060"/>
                  <path id="Trazado_775137" data-name="Trazado 775137" d="M464,214.5l-.461-.509c20.926-22.792,41.925-45.272,62.232-67.013q5.017-5.371,10.016-10.724l.457.513q-5,5.354-10.016,10.724C505.922,169.232,484.924,191.711,464,214.5Z" transform="translate(-469.552 -139.211)" fill="#606060"/>
                  <path id="Trazado_775138" data-name="Trazado 775138" d="M463.956,221.519l-.611-.259a2.26,2.26,0,0,1,1.41-1.226,2.712,2.712,0,0,0,.9-.549c12.211-13.723,24.454-27.158,36.294-40.151,12.707-13.945,25.847-28.365,38.8-42.983l.469.5c-12.956,14.622-26.1,29.044-38.806,42.991-11.838,12.991-24.079,26.425-36.291,40.148a3.217,3.217,0,0,1-1.12.708C464.52,220.917,464.1,221.106,463.956,221.519Z" transform="translate(-469.548 -139.205)" fill="#606060"/>
                  <path id="Trazado_775139" data-name="Trazado 775139" d="M464.1,228.31l-.484-.484c6.417-7.714,13.131-14.945,19.624-21.939,5.252-5.657,10.683-11.506,16.044-17.694l.006-.007c6.708-7.354,13.489-14.44,20.046-21.292,9.872-10.315,19.2-20.059,28.314-30.659l.476.492c-9.13,10.614-18.46,20.364-28.338,30.686-6.554,6.848-13.33,13.929-20.032,21.277-5.368,6.2-10.8,12.048-16.057,17.708C477.216,213.386,470.508,220.611,464.1,228.31Z" transform="translate(-469.555 -139.212)" fill="#606060"/>
                  <path id="Trazado_775140" data-name="Trazado 775140" d="M464.008,235.183l-.476-.493c17.3-20.059,35.491-39.677,53.081-58.649,11.648-12.562,23.692-25.552,35.324-38.506l.466.5c-11.636,12.958-23.682,25.95-35.331,38.514C499.486,195.52,481.3,215.133,464.008,235.183Z" transform="translate(-469.552 -139.131)" fill="#606060"/>
                  <path id="Trazado_775141" data-name="Trazado 775141" d="M464.112,241.385l-.464-.506c25.091-27.666,53.128-58.444,88.234-96.861l.462.508C517.239,182.942,489.2,213.719,464.112,241.385Z" transform="translate(-469.555 -138.724)" fill="#606060"/>
                  <path id="Trazado_775142" data-name="Trazado 775142" d="M464.133,248.158l-.469-.5c17.131-19.32,34.956-38.634,52.195-57.312,12.893-13.969,26.224-28.413,39.219-42.81l.465.5c-13,14.4-26.331,28.845-39.225,42.815C499.082,209.532,481.259,228.843,464.133,248.158Z" transform="translate(-469.556 -138.503)" fill="#606060"/>
                  <path id="Trazado_775143" data-name="Trazado 775143" d="M463.841,255.376l-.45-.521c20.883-21.71,41.492-44.686,61.422-66.905,11.931-13.3,24.268-27.056,36.579-40.446l.461.509c-12.308,13.387-24.644,27.14-36.573,40.44C505.345,210.677,484.733,233.657,463.841,255.376Z" transform="translate(-469.547 -138.505)" fill="#606060"/>
                  <path id="Trazado_775144" data-name="Trazado 775144" d="M467.436,258.3l-.463-.507L567.356,147.739l.463.507Z" transform="translate(-469.657 -138.49)" fill="#606060"/>
                  <path id="Trazado_775145" data-name="Trazado 775145" d="M473.846,258.368l-.462-.508c13.355-14.61,26.779-29.418,39.761-43.739,19.808-21.851,40.291-44.446,60.573-66.38l.46.511c-20.28,21.932-40.761,44.525-60.568,66.375C500.627,228.948,487.2,243.756,473.846,258.368Z" transform="translate(-469.853 -138.49)" fill="#606060"/>
                  <path id="Trazado_775146" data-name="Trazado 775146" d="M480.286,258.213l-.457-.513c19-20.344,37.759-41.155,55.9-61.28,13.572-15.059,27.607-30.631,41.507-45.739l.461.51c-13.9,15.106-27.931,30.676-41.5,45.734C518.051,217.052,499.293,237.864,480.286,258.213Z" transform="translate(-470.051 -138.305)" fill="#606060"/>
                  <path id="Trazado_775147" data-name="Trazado 775147" d="M486.752,257.828l-.446-.525c20.034-20.479,39.5-42.418,58.317-63.635,10.748-12.116,21.862-24.645,33-36.81l.462.508c-11.133,12.161-22.246,24.688-32.992,36.8C526.265,215.391,506.8,237.336,486.752,257.828Z" transform="translate(-470.249 -137.917)" fill="#606060"/>
                  <path id="Trazado_775148" data-name="Trazado 775148" d="M493.259,257.343l-.46-.51c13.423-14.562,26.987-29.51,40.1-43.965,14.586-16.074,29.668-32.694,44.687-48.93l.46.511c-15.016,16.233-30.1,32.853-44.682,48.925C520.249,227.83,506.684,242.778,493.259,257.343Z" transform="translate(-470.448 -137.472)" fill="#606060"/>
                  <path id="Trazado_775149" data-name="Trazado 775149" d="M499.783,256.906l-.46-.511c15.763-17.038,31.622-34.577,46.959-51.539,10.379-11.478,21.111-23.347,31.69-34.924l.462.508c-10.577,11.575-21.309,23.443-31.687,34.921C531.409,222.324,515.548,239.864,499.783,256.906Z" transform="translate(-470.648 -137.096)" fill="#606060"/>
                  <path id="Trazado_775150" data-name="Trazado 775150" d="M506.174,256.573l-.465-.505c24.34-26.893,49.176-54.12,72.388-79.536l.463.508C555.349,202.455,530.514,229.681,506.174,256.573Z" transform="translate(-470.843 -136.681)" fill="#606060"/>
                  <path id="Trazado_775151" data-name="Trazado 775151" d="M512.737,256.067l-.457-.513c22.659-24.258,44.9-48.667,66.09-72.548l.469.5C557.64,207.392,535.4,231.8,512.737,256.067Z" transform="translate(-471.044 -136.274)" fill="#606060"/>
                  <path id="Trazado_775152" data-name="Trazado 775152" d="M519.164,255.7l-.463-.507c20.517-22.538,41.738-45.8,59.791-65.589l.463.508C560.9,209.9,539.68,233.16,519.164,255.7Z" transform="translate(-471.241 -135.86)" fill="#606060"/>
                  <path id="Trazado_775153" data-name="Trazado 775153" d="M525.6,255.31l-.462-.508c18.772-20.538,37.4-40.963,53.383-58.5l.463.507C563,214.346,544.372,234.772,525.6,255.31Z" transform="translate(-471.438 -135.439)" fill="#606060"/>
                  <path id="Trazado_775154" data-name="Trazado 775154" d="M532.05,254.948l-.466-.5c3.405-3.792,6.93-7.7,10.478-11.629C555.09,228.4,568,214.282,578.913,202.369l.462.509c-10.911,11.912-23.821,26.032-36.848,40.443C538.98,247.245,535.455,251.157,532.05,254.948Z" transform="translate(-471.636 -135.058)" fill="#606060"/>
                  <path id="Trazado_775155" data-name="Trazado 775155" d="M538.5,254.513l-.448-.523c11.747-12.1,24.779-26.2,41.011-44.368l.468.5C563.291,228.3,550.253,242.4,538.5,254.513Z" transform="translate(-471.833 -134.602)" fill="#606060"/>
                </g>
              </g>
              <g id="Grupo_1067317" data-name="Grupo 1067317" transform="translate(886.855 253.497)" opacity="0.32">
                <path id="Trazado_775156" data-name="Trazado 775156" d="M86.749,288.84a17.457,17.457,0,0,1,7.135,1.522,18.816,18.816,0,0,1,6.273,4.567,20.91,20.91,0,0,1,4.165,6.878,22.73,22.73,0,0,1,0,15.645,20.91,20.91,0,0,1-4.165,6.878L-105.421,549.724a18.815,18.815,0,0,1-6.273,4.567,17.455,17.455,0,0,1-7.135,1.523,17.455,17.455,0,0,1-7.135-1.523,18.816,18.816,0,0,1-6.273-4.567,20.911,20.911,0,0,1-4.165-6.878,22.474,22.474,0,0,1-1.389-7.823A22.474,22.474,0,0,1-136.4,527.2a20.909,20.909,0,0,1,4.165-6.878L73.341,294.929a18.816,18.816,0,0,1,6.273-4.567A17.457,17.457,0,0,1,86.749,288.84ZM-118.828,553.621a16.136,16.136,0,0,0,11.994-5.448L98.742,322.779a19.887,19.887,0,0,0,0-26.3,15.928,15.928,0,0,0-23.987,0L-130.822,521.874a19.911,19.911,0,0,0,0,26.3A16.136,16.136,0,0,0-118.828,553.621Z" transform="translate(137.79 -288.84)" fill="#8f9294"/>
                <path id="Trazado_775157" data-name="Trazado 775157" d="M78.61,387.162a14,14,0,0,1,10.4,4.723,17.249,17.249,0,0,1,0,22.809L-67.9,586.735a13.994,13.994,0,0,1-10.4,4.724,13.994,13.994,0,0,1-10.4-4.724,16.839,16.839,0,0,1-4.309-11.4,16.836,16.836,0,0,1,4.309-11.4L68.208,391.885A14,14,0,0,1,78.61,387.162ZM-78.3,589.266a12.092,12.092,0,0,0,8.987-4.081L87.6,413.144a14.922,14.922,0,0,0,0-19.708,11.937,11.937,0,0,0-17.975,0L-87.291,565.476a14.547,14.547,0,0,0-3.723,9.854,14.55,14.55,0,0,0,3.723,9.854A12.092,12.092,0,0,0-78.3,589.266Z" transform="translate(136.419 -282.663)" fill="#8f9294"/>
              </g>
              <g id="Grupo_1067318" data-name="Grupo 1067318" transform="translate(0 378.998)" opacity="0.32">
                <path id="Trazado_775158" data-name="Trazado 775158" d="M86.749,288.84a17.457,17.457,0,0,1,7.135,1.522,18.816,18.816,0,0,1,6.273,4.567,20.91,20.91,0,0,1,4.165,6.878,22.73,22.73,0,0,1,0,15.645,20.91,20.91,0,0,1-4.165,6.878L-105.421,549.724a18.815,18.815,0,0,1-6.273,4.567,17.455,17.455,0,0,1-7.135,1.523,17.455,17.455,0,0,1-7.135-1.523,18.816,18.816,0,0,1-6.273-4.567,20.911,20.911,0,0,1-4.165-6.878,22.474,22.474,0,0,1-1.389-7.823A22.474,22.474,0,0,1-136.4,527.2a20.909,20.909,0,0,1,4.165-6.878L73.341,294.929a18.816,18.816,0,0,1,6.273-4.567A17.457,17.457,0,0,1,86.749,288.84ZM-118.828,553.621a16.136,16.136,0,0,0,11.994-5.448L98.742,322.779a19.887,19.887,0,0,0,0-26.3,15.928,15.928,0,0,0-23.987,0L-130.822,521.874a19.911,19.911,0,0,0,0,26.3A16.136,16.136,0,0,0-118.828,553.621Z" transform="translate(137.79 -288.84)" fill="#8f9294"/>
                <path id="Trazado_775159" data-name="Trazado 775159" d="M78.61,387.162a14,14,0,0,1,10.4,4.723,17.249,17.249,0,0,1,0,22.809L-67.9,586.735a13.994,13.994,0,0,1-10.4,4.724,13.994,13.994,0,0,1-10.4-4.724,16.839,16.839,0,0,1-4.309-11.4,16.836,16.836,0,0,1,4.309-11.4L68.208,391.885A14,14,0,0,1,78.61,387.162ZM-78.3,589.266a12.092,12.092,0,0,0,8.987-4.081L87.6,413.144a14.922,14.922,0,0,0,0-19.708,11.937,11.937,0,0,0-17.975,0L-87.291,565.476a14.547,14.547,0,0,0-3.723,9.854,14.55,14.55,0,0,0,3.723,9.854A12.092,12.092,0,0,0-78.3,589.266Z" transform="translate(136.419 -282.663)" fill="#8f9294"/>
              </g>
              <g id="Grupo_1067339" data-name="Grupo 1067339" transform="translate(446.174 356.326)">
                <g id="Grupo_1067323" data-name="Grupo 1067323" transform="translate(0 0)">
                  <g id="Grupo_1067319" data-name="Grupo 1067319">
                    <path id="Línea_3268" data-name="Línea 3268" d="M.194,8.006H-.194V0H.194Z" transform="translate(3.651 0)" fill="#8f9294"/>
                    <path id="Línea_3269" data-name="Línea 3269" d="M7.3.231H0V-.194H7.3Z" transform="translate(0 3.984)" fill="#8f9294"/>
                  </g>
                  <g id="Grupo_1067320" data-name="Grupo 1067320" transform="translate(19.898)">
                    <path id="Línea_3270" data-name="Línea 3270" d="M.194,8.006H-.194V0H.194Z" transform="translate(3.651 0)" fill="#8f9294"/>
                    <path id="Línea_3271" data-name="Línea 3271" d="M7.3.231H0V-.194H7.3Z" transform="translate(0 3.984)" fill="#8f9294"/>
                  </g>
                  <g id="Grupo_1067321" data-name="Grupo 1067321" transform="translate(39.796)">
                    <path id="Línea_3272" data-name="Línea 3272" d="M.194,8.006H-.194V0H.194Z" transform="translate(3.651 0)" fill="#8f9294"/>
                    <path id="Línea_3273" data-name="Línea 3273" d="M7.3.231H0V-.194H7.3Z" transform="translate(0 3.984)" fill="#8f9294"/>
                  </g>
                  <g id="Grupo_1067322" data-name="Grupo 1067322" transform="translate(59.694)">
                    <path id="Línea_3274" data-name="Línea 3274" d="M.194,8.006H-.194V0H.194Z" transform="translate(3.651 0)" fill="#8f9294"/>
                    <path id="Línea_3275" data-name="Línea 3275" d="M7.3.231H0V-.194H7.3Z" transform="translate(0 3.984)" fill="#8f9294"/>
                  </g>
                </g>
                <g id="Grupo_1067328" data-name="Grupo 1067328" transform="translate(0 16.612)">
                  <g id="Grupo_1067324" data-name="Grupo 1067324" transform="translate(0 0)">
                    <path id="Línea_3276" data-name="Línea 3276" d="M.194,8.006H-.194V0H.194Z" transform="translate(3.651 0)" fill="#8f9294"/>
                    <path id="Línea_3277" data-name="Línea 3277" d="M7.3.231H0V-.194H7.3Z" transform="translate(0 3.984)" fill="#8f9294"/>
                  </g>
                  <g id="Grupo_1067325" data-name="Grupo 1067325" transform="translate(19.898 0)">
                    <path id="Línea_3278" data-name="Línea 3278" d="M.194,8.006H-.194V0H.194Z" transform="translate(3.651 0)" fill="#8f9294"/>
                    <path id="Línea_3279" data-name="Línea 3279" d="M7.3.231H0V-.194H7.3Z" transform="translate(0 3.984)" fill="#8f9294"/>
                  </g>
                  <g id="Grupo_1067326" data-name="Grupo 1067326" transform="translate(39.796 0)">
                    <path id="Línea_3280" data-name="Línea 3280" d="M.194,8.006H-.194V0H.194Z" transform="translate(3.651 0)" fill="#8f9294"/>
                    <path id="Línea_3281" data-name="Línea 3281" d="M7.3.231H0V-.194H7.3Z" transform="translate(0 3.984)" fill="#8f9294"/>
                  </g>
                  <g id="Grupo_1067327" data-name="Grupo 1067327" transform="translate(59.694 0)">
                    <path id="Línea_3282" data-name="Línea 3282" d="M.194,8.006H-.194V0H.194Z" transform="translate(3.651 0)" fill="#8f9294"/>
                    <path id="Línea_3283" data-name="Línea 3283" d="M7.3.231H0V-.194H7.3Z" transform="translate(0 3.984)" fill="#8f9294"/>
                  </g>
                </g>
                <g id="Grupo_1067333" data-name="Grupo 1067333" transform="translate(0 33.224)">
                  <g id="Grupo_1067329" data-name="Grupo 1067329" transform="translate(0 0)">
                    <path id="Línea_3284" data-name="Línea 3284" d="M.194,8.006H-.194V0H.194Z" transform="translate(3.651 0)" fill="#8f9294"/>
                    <path id="Línea_3285" data-name="Línea 3285" d="M7.3.231H0V-.194H7.3Z" transform="translate(0 3.984)" fill="#8f9294"/>
                  </g>
                  <g id="Grupo_1067330" data-name="Grupo 1067330" transform="translate(19.898 0)">
                    <path id="Línea_3286" data-name="Línea 3286" d="M.194,8.006H-.194V0H.194Z" transform="translate(3.651 0)" fill="#8f9294"/>
                    <path id="Línea_3287" data-name="Línea 3287" d="M7.3.231H0V-.194H7.3Z" transform="translate(0 3.984)" fill="#8f9294"/>
                  </g>
                  <g id="Grupo_1067331" data-name="Grupo 1067331" transform="translate(39.796 0)">
                    <path id="Línea_3288" data-name="Línea 3288" d="M.194,8.006H-.194V0H.194Z" transform="translate(3.651 0)" fill="#8f9294"/>
                    <path id="Línea_3289" data-name="Línea 3289" d="M7.3.231H0V-.194H7.3Z" transform="translate(0 3.984)" fill="#8f9294"/>
                  </g>
                  <g id="Grupo_1067332" data-name="Grupo 1067332" transform="translate(59.694 0)">
                    <path id="Línea_3290" data-name="Línea 3290" d="M.194,8.006H-.194V0H.194Z" transform="translate(3.651 0)" fill="#8f9294"/>
                    <path id="Línea_3291" data-name="Línea 3291" d="M7.3.231H0V-.194H7.3Z" transform="translate(0 3.984)" fill="#8f9294"/>
                  </g>
                </g>
                <g id="Grupo_1067338" data-name="Grupo 1067338" transform="translate(0 49.837)">
                  <g id="Grupo_1067334" data-name="Grupo 1067334" transform="translate(0 0)">
                    <path id="Línea_3292" data-name="Línea 3292" d="M.194,8.006H-.194V0H.194Z" transform="translate(3.651 0)" fill="#8f9294"/>
                    <path id="Línea_3293" data-name="Línea 3293" d="M7.3.231H0V-.194H7.3Z" transform="translate(0 3.984)" fill="#8f9294"/>
                  </g>
                  <g id="Grupo_1067335" data-name="Grupo 1067335" transform="translate(19.898 0)">
                    <path id="Línea_3294" data-name="Línea 3294" d="M.194,8.006H-.194V0H.194Z" transform="translate(3.651 0)" fill="#8f9294"/>
                    <path id="Línea_3295" data-name="Línea 3295" d="M7.3.231H0V-.194H7.3Z" transform="translate(0 3.984)" fill="#8f9294"/>
                  </g>
                  <g id="Grupo_1067336" data-name="Grupo 1067336" transform="translate(39.796 0)">
                    <path id="Línea_3296" data-name="Línea 3296" d="M.194,8.006H-.194V0H.194Z" transform="translate(3.651 0)" fill="#8f9294"/>
                    <path id="Línea_3297" data-name="Línea 3297" d="M7.3.231H0V-.194H7.3Z" transform="translate(0 3.984)" fill="#8f9294"/>
                  </g>
                  <g id="Grupo_1067337" data-name="Grupo 1067337" transform="translate(59.694 0)">
                    <path id="Línea_3298" data-name="Línea 3298" d="M.194,8.006H-.194V0H.194Z" transform="translate(3.651 0)" fill="#8f9294"/>
                    <path id="Línea_3299" data-name="Línea 3299" d="M7.3.231H0V-.194H7.3Z" transform="translate(0 3.984)" fill="#8f9294"/>
                  </g>
                </g>
              </g>
            </g>
          </g>
        </g>
      </g>
      <g id="Grupo_1046277" data-name="Grupo 1046277" transform="translate(0 2)">
        <g id="Grupo_1044071" data-name="Grupo 1044071" transform="translate(158 16)">
          <line id="Línea_1974" data-name="Línea 1974" x2="295" transform="translate(285 2231)" fill="none" stroke="#083142" stroke-width="2"/>
          <line id="Línea_1975" data-name="Línea 1975" x2="295" transform="translate(495 2278)" fill="none" stroke="#083142" stroke-width="2"/>
          <line id="Línea_1976" data-name="Línea 1976" x2="266" transform="translate(705 2328)" fill="none" stroke="#083142" stroke-width="2"/>
          <rect id="Rectángulo_356326" data-name="Rectángulo 356326" width="510" height="10" transform="translate(475 2226)" fill="#083142"/>
          <rect id="Rectángulo_356328" data-name="Rectángulo 356328" width="300" height="10" transform="translate(685 2273)" fill="#083142"/>
          <rect id="Rectángulo_356330" data-name="Rectángulo 356330" width="90" height="10" transform="translate(895 2323)" fill="#083142"/>
          <path id="Polígono_2" data-name="Polígono 2" d="M19,0,38,33H0Z" transform="translate(1000 2212) rotate(90)" fill="#083142"/>
          <path id="Polígono_3" data-name="Polígono 3" d="M19,0,38,33H0Z" transform="translate(1000 2259) rotate(90)" fill="#083142"/>
          <path id="Polígono_4" data-name="Polígono 4" d="M19,0,38,33H0Z" transform="translate(1000 2309) rotate(90)" fill="#083142"/>
          <rect id="Rectángulo_356327" data-name="Rectángulo 356327" width="183" height="61" transform="translate(285 2237)" fill="#083142"/>
          <rect id="Rectángulo_356329" data-name="Rectángulo 356329" width="190" height="61" transform="translate(495 2286)" fill="#083142"/>
          <rect id="Rectángulo_356331" data-name="Rectángulo 356331" width="190" height="61" transform="translate(705 2335)" fill="#083142"/>
          <text id="Inicio_del_programa:_Los_datos" data-name="Inicio del programa: Los datos" transform="translate(299.5 2246)" fill="#fff" font-size="16" font-family="SegoeUI-Bold, Segoe UI" font-weight="700"><tspan x="0" y="17">Inicio del programa: </tspan><tspan x="0" y="41" font-family="SegoeUI, Segoe UI" font-weight="400">Los datos</tspan></text>
          <text id="Proceso_del_programa:_los_cálculos" data-name="Proceso del programa: los cálculos" transform="translate(509.5 2295)" fill="#fff" font-size="16" font-family="SegoeUI-Bold, Segoe UI" font-weight="700"><tspan x="0" y="17">Proceso del </tspan><tspan x="0" y="41">programa: </tspan><tspan y="41" font-family="SegoeUI, Segoe UI" font-weight="400">los </tspan><tspan x="0" y="65" font-family="SegoeUI, Segoe UI" font-weight="400">cálculos</tspan></text>
          <text id="Fin_del_programa:_resultados" data-name="Fin del programa: resultados" transform="translate(719.5 2344)" fill="#fff" font-size="16" font-family="SegoeUI-Bold, Segoe UI" font-weight="700"><tspan x="0" y="17">Fin del programa: </tspan><tspan x="0" y="41" font-family="SegoeUI, Segoe UI" font-weight="400">resultados</tspan></text>
        </g>
      </g>
    </g>
  </g>
</svg>
