<svg xmlns="http://www.w3.org/2000/svg" xmlns:xlink="http://www.w3.org/1999/xlink" width="85" height="85" viewBox="0 0 85 85">
  <defs>
    <clipPath id="clip-path">
      <path id="path3529" d="M0-682.665H70.665V-612H0Z" transform="translate(0 682.665)"/>
    </clipPath>
  </defs>
  <g id="Grupo_1046292" data-name="Grupo 1046292" transform="translate(-758 -2797)">
    <g id="Rectángulo_356043" data-name="Rectángulo 356043" transform="translate(758 2797)" fill="none" stroke="#ff6148" stroke-width="2">
      <rect width="85" height="85" rx="11" stroke="none"/>
      <rect x="1" y="1" width="83" height="83" rx="10" fill="none"/>
    </g>
    <g id="g3519" transform="translate(765 3486.666)">
      <g id="g3521" transform="translate(25.418 -630.303)">
        <path id="path3523" d="M-161.321,0h-17.425l-1.2,8.065h19.829Z" transform="translate(179.948)" fill="#495560"/>
      </g>
      <g id="g3525" transform="translate(0 -682.665)">
        <g id="g3527" clip-path="url(#clip-path)">
          <g id="g3533" transform="translate(20.46 60.427)">
            <path id="path3535" d="M-242.735-47.175h-26.31a1.716,1.716,0,0,1-1.646-2.2l.239-.813a3.391,3.391,0,0,1,3.253-2.434h22.618a3.391,3.391,0,0,1,3.253,2.434l.239.813a1.716,1.716,0,0,1-1.646,2.2" transform="translate(270.763 52.623)" fill="#c7c7c7"/>
          </g>
          <g id="g3537" transform="translate(20.46 60.427)">
            <path id="path3539" d="M-108.738,0h-8.992a3.391,3.391,0,0,0-3.253,2.434l-.239.813a1.716,1.716,0,0,0,1.646,2.2h12.185A6.268,6.268,0,0,1-108.738,0" transform="translate(121.293)" fill="#98a5b3"/>
          </g>
          <g id="g3541" transform="translate(1.035 4.79)">
            <path id="path3543" d="M-523.214-412h-52.232a8.181,8.181,0,0,1-8.182-8.181v-31.209a8.181,8.181,0,0,1,8.182-8.181h52.232a8.181,8.181,0,0,1,8.181,8.181v31.209A8.181,8.181,0,0,1-523.214-412" transform="translate(583.628 459.567)" fill="#495560"/>
          </g>
          <g id="g3545" transform="translate(1.035 4.791)">
            <path id="path3547" d="M-191.867,0h-13.972a8.181,8.181,0,0,0-8.182,8.181V39.39a8.181,8.181,0,0,0,8.182,8.181h20.151c-7.777-8.138-11.2-30.984-6.178-47.571" transform="translate(214.021)" fill="#333941"/>
          </g>
          <g id="g3549" transform="translate(6.631 10.386)">
            <path id="path3551" d="M0-283.741v-29.145A3.617,3.617,0,0,1,3.617-316.5H53.786a3.617,3.617,0,0,1,3.617,3.617v29.145a3.617,3.617,0,0,1-3.617,3.617H3.617A3.617,3.617,0,0,1,0-283.741" transform="translate(0 316.503)" fill="#faef81"/>
          </g>
          <g id="g3553" transform="translate(6.631 10.386)">
            <path id="path3555" d="M-164.869-315.069c-4.361-9.066-6.131-23.738-3.82-36.38h-11.6a3.617,3.617,0,0,0-3.617,3.617v29.145a3.617,3.617,0,0,0,3.617,3.617Z" transform="translate(183.906 351.448)" fill="#fad271"/>
          </g>
          <g id="g3557" transform="translate(35.333 10.386)">
            <path id="path3559" d="M-217.244,0h-25.084V36.38h25.084a3.617,3.617,0,0,0,3.617-3.617V3.617A3.617,3.617,0,0,0-217.244,0" transform="translate(242.329)" fill="#333941"/>
          </g>
          <g id="g3561" transform="translate(1.035 41.891)">
            <path id="path3563" d="M0,0V2.289a8.181,8.181,0,0,0,8.181,8.181H60.414a8.181,8.181,0,0,0,8.181-8.181V0Z" fill="#c7c7c7"/>
          </g>
          <g id="g3565" transform="translate(1.035 41.891)">
            <path id="path3567" d="M0,0V2.289a8.181,8.181,0,0,0,8.181,8.181H28.332C26.044,8.076,24.133,4.408,22.7,0Z" fill="#98a5b3"/>
          </g>
          <g id="g3569" transform="translate(32.341 44.135)">
            <path id="path3571" d="M-51.812-25.906A2.991,2.991,0,0,1-54.8-22.915a2.991,2.991,0,0,1-2.991-2.991A2.991,2.991,0,0,1-54.8-28.9a2.991,2.991,0,0,1,2.991,2.991" transform="translate(57.795 28.897)" fill="#fff"/>
          </g>
          <g id="g3573" transform="translate(52.644 28.902)">
            <path id="path3575" d="M-4.85-7.93H-8.965A1.035,1.035,0,0,1-10-8.965,1.035,1.035,0,0,1-8.965-10H-4.85A1.035,1.035,0,0,1-3.815-8.965,1.035,1.035,0,0,1-4.85-7.93Z" transform="translate(10 10)" fill="#fff"/>
          </g>
          <g id="g3577" transform="translate(40.538 28.902)">
            <path id="path3579" d="M-.572-7.93H-8.965A1.035,1.035,0,0,1-10-8.965,1.035,1.035,0,0,1-8.965-10H-.572A1.035,1.035,0,0,1,.463-8.965,1.035,1.035,0,0,1-.572-7.93Z" transform="translate(10 10)" fill="#84dfff"/>
          </g>
          <g id="g3581" transform="translate(47.996 32.667)">
            <path id="path3583" d="M-3.846-7.93H-8.965A1.035,1.035,0,0,1-10-8.965,1.035,1.035,0,0,1-8.965-10h5.119A1.035,1.035,0,0,1-2.811-8.965,1.035,1.035,0,0,1-3.846-7.93Z" transform="translate(10 10)" fill="#84dfff"/>
          </g>
          <g id="g3585" transform="translate(40.538 32.667)">
            <path id="path3587" d="M-5.22-7.93H-8.965A1.035,1.035,0,0,1-10-8.965,1.035,1.035,0,0,1-8.965-10H-5.22A1.035,1.035,0,0,1-4.185-8.965,1.035,1.035,0,0,1-5.22-7.93Z" transform="translate(10 10)" fill="#fff"/>
          </g>
          <g id="g3589" transform="translate(47.735 25.138)">
            <path id="path3591" d="M-1.37-7.93H-8.965A1.035,1.035,0,0,1-10-8.965,1.035,1.035,0,0,1-8.965-10H-1.37A1.035,1.035,0,0,1-.335-8.965,1.035,1.035,0,0,1-1.37-7.93Z" transform="translate(10 10)" fill="#55d57b"/>
          </g>
          <g id="g3593" transform="translate(40.538 25.138)">
            <path id="path3595" d="M-5.481-7.93H-8.965A1.035,1.035,0,0,1-10-8.965,1.035,1.035,0,0,1-8.965-10h3.484A1.035,1.035,0,0,1-4.446-8.965,1.035,1.035,0,0,1-5.481-7.93Z" transform="translate(10 10)" fill="#ff8aa0"/>
          </g>
          <g id="g3597" transform="translate(52.413 21.373)">
            <path id="path3599" d="M-4.62-7.93H-8.965A1.035,1.035,0,0,1-10-8.965,1.035,1.035,0,0,1-8.965-10H-4.62A1.035,1.035,0,0,1-3.585-8.965,1.035,1.035,0,0,1-4.62-7.93Z" transform="translate(10 10)" fill="#ff8aa0"/>
          </g>
          <g id="g3601" transform="translate(40.538 21.373)">
            <path id="path3603" d="M-.8-7.93H-8.965A1.035,1.035,0,0,1-10-8.965,1.035,1.035,0,0,1-8.965-10H-.8A1.035,1.035,0,0,1,.232-8.965,1.035,1.035,0,0,1-.8-7.93Z" transform="translate(10 10)" fill="#fff"/>
          </g>
          <g id="g3605" transform="translate(47.996 17.609)">
            <path id="path3607" d="M-4.338-7.93H-8.965A1.035,1.035,0,0,1-10-8.965,1.035,1.035,0,0,1-8.965-10h4.626A1.035,1.035,0,0,1-3.3-8.965,1.035,1.035,0,0,1-4.338-7.93Z" transform="translate(10 10)" fill="#55d57b"/>
          </g>
          <g id="g3609" transform="translate(40.538 17.609)">
            <path id="path3611" d="M-5.22-7.93H-8.965A1.035,1.035,0,0,1-10-8.965,1.035,1.035,0,0,1-8.965-10H-5.22A1.035,1.035,0,0,1-4.185-8.965,1.035,1.035,0,0,1-5.22-7.93Z" transform="translate(10 10)" fill="#84dfff"/>
          </g>
          <g id="g3613" transform="translate(5.596 9.351)">
            <path id="path3615" d="M48.438-280.779a1.035,1.035,0,0,1-1.035-1.035V-309.7a2.585,2.585,0,0,0-2.582-2.582H-5.348A2.585,2.585,0,0,0-7.93-309.7v27.887a1.035,1.035,0,0,1-1.035,1.035A1.035,1.035,0,0,1-10-281.814V-309.7a4.658,4.658,0,0,1,4.652-4.652H44.821a4.658,4.658,0,0,1,4.652,4.652v27.887A1.035,1.035,0,0,1,48.438-280.779Z" transform="translate(10 314.354)"/>
          </g>
          <g id="g3617" transform="translate(0 3.755)">
            <path id="path3619" d="M-448.088,38.943a1.031,1.031,0,0,1-.419-.089,9.228,9.228,0,0,1-5.484-8.429V-.783A9.227,9.227,0,0,1-444.774-10H-407a1.035,1.035,0,0,1,1.035,1.035A1.035,1.035,0,0,1-407-7.93h-37.778a7.154,7.154,0,0,0-7.146,7.146V30.425a7.156,7.156,0,0,0,4.253,6.536,1.035,1.035,0,0,1,.527,1.366A1.035,1.035,0,0,1-448.088,38.943Z" transform="translate(453.991 10)"/>
          </g>
          <g id="g3621" transform="translate(9.697 3.755)">
            <path id="path3623" d="M41.752-419.925H-8.965A1.035,1.035,0,0,1-10-420.96,1.035,1.035,0,0,1-8.965-422H41.752a7.154,7.154,0,0,0,7.146-7.146V-460.35a7.154,7.154,0,0,0-7.146-7.146H32.505a1.035,1.035,0,0,1-1.035-1.035,1.035,1.035,0,0,1,1.035-1.035h9.246a9.227,9.227,0,0,1,9.217,9.217v31.209A9.227,9.227,0,0,1,41.752-419.925Z" transform="translate(10 469.567)"/>
          </g>
          <g id="g3625" transform="translate(0 40.856)">
            <path id="path3627" d="M59.63-7.93H-8.965A1.035,1.035,0,0,1-10-8.965,1.035,1.035,0,0,1-8.965-10H59.63a1.035,1.035,0,0,1,1.035,1.035A1.035,1.035,0,0,1,59.63-7.93Z" transform="translate(10 10)"/>
          </g>
          <g id="g3629" transform="translate(24.383 51.327)">
            <path id="path3631" d="M-8.965-77.782a1.043,1.043,0,0,1-.154-.011A1.035,1.035,0,0,1-9.99-78.97l1.2-8.065a1.035,1.035,0,0,1,1.176-.871,1.035,1.035,0,0,1,.871,1.176l-1.2,8.065A1.035,1.035,0,0,1-8.965-77.782Z" transform="translate(10.001 87.918)"/>
          </g>
          <g id="g3633" transform="translate(43.01 51.327)">
            <path id="path3635" d="M-7.766.135A1.035,1.035,0,0,1-8.788-.748l-1.2-8.065A1.035,1.035,0,0,1-9.119-9.99a1.035,1.035,0,0,1,1.176.871l1.2,8.065A1.035,1.035,0,0,1-7.612.123,1.044,1.044,0,0,1-7.766.135Z" transform="translate(10.001 10.001)"/>
          </g>
          <g id="g3637" transform="translate(19.424 59.392)">
            <path id="path3639" d="M2.465-55.105h-26.31a2.728,2.728,0,0,1-2.2-1.1,2.728,2.728,0,0,1-.436-2.425l.239-.813A4.451,4.451,0,0,1-22-62.623H.619a4.451,4.451,0,0,1,4.246,3.177l.239.813a2.728,2.728,0,0,1-.436,2.425A2.728,2.728,0,0,1,2.465-55.105ZM-22-60.552a2.369,2.369,0,0,0-2.26,1.691l-.239.813a.675.675,0,0,0,.108.6.668.668,0,0,0,.545.273H2.465a.668.668,0,0,0,.545-.273.675.675,0,0,0,.108-.6l-.239-.813a2.369,2.369,0,0,0-2.26-1.691Z" transform="translate(26.598 62.623)"/>
          </g>
          <g id="g3641" transform="translate(11.136 20.788)">
            <path id="path3643" d="M-45.9.6a1.032,1.032,0,0,1-.732-.3L-50.9-3.968a1.035,1.035,0,0,1,0-1.464L-46.634-9.7a1.035,1.035,0,0,1,1.464,0,1.035,1.035,0,0,1,0,1.464L-48.7-4.7l3.533,3.533A1.035,1.035,0,0,1-45.17.3,1.032,1.032,0,0,1-45.9.6Z" transform="translate(51.203 10)"/>
          </g>
          <g id="g3645" transform="translate(24.492 20.788)">
            <path id="path3647" d="M-8.965.6A1.032,1.032,0,0,1-9.7.3a1.035,1.035,0,0,1,0-1.464L-6.164-4.7-9.7-8.233A1.035,1.035,0,0,1-9.7-9.7a1.035,1.035,0,0,1,1.464,0l4.265,4.265a1.035,1.035,0,0,1,0,1.464L-8.233.3A1.032,1.032,0,0,1-8.965.6Z" transform="translate(10 10)"/>
          </g>
          <g id="g3649" transform="translate(17.551 18.472)">
            <path id="path3651" d="M-8.967-121.929a1.033,1.033,0,0,1-.354-.063,1.035,1.035,0,0,1-.619-1.327l4.791-13.163a1.035,1.035,0,0,1,1.327-.619,1.035,1.035,0,0,1,.619,1.327L-7.995-122.61A1.036,1.036,0,0,1-8.967-121.929Z" transform="translate(10.003 137.162)"/>
          </g>
        </g>
      </g>
    </g>
  </g>
</svg>
