<svg xmlns="http://www.w3.org/2000/svg" width="145.335" height="145.173" viewBox="0 0 145.335 145.173">
  <g id="Grupo_1070052" data-name="Grupo 1070052" transform="translate(-628.665 -4270)">
    <g id="datos-" transform="translate(628.665 4270)">
      <path id="Trazado_773181" data-name="Trazado 773181" d="M184.176,417.711h40.608v16.807H184.176Zm0,0" transform="translate(-131.896 -299.141)" fill="#5a5a5a"/>
      <path id="Trazado_773182" data-name="Trazado 773182" d="M137.715,120.924H7.452A7.452,7.452,0,0,1,0,113.472V7.452A7.452,7.452,0,0,1,7.452,0H137.715a7.452,7.452,0,0,1,7.452,7.452V113.472A7.452,7.452,0,0,1,137.715,120.924Zm0,0" fill="#ffd86e"/>
      <path id="Trazado_773183" data-name="Trazado 773183" d="M469.646,7.456V113.475a7.452,7.452,0,0,1-7.452,7.452h-9.1a7.452,7.452,0,0,0,7.452-7.452V7.456A7.452,7.452,0,0,0,453.09,0h9.1A7.452,7.452,0,0,1,469.646,7.456Zm0,0" transform="translate(-324.477 -0.003)" fill="#ffb509"/>
      <path id="Trazado_773184" data-name="Trazado 773184" d="M145.167,362.754H0v10.5a7.452,7.452,0,0,0,7.452,7.452H137.715a7.452,7.452,0,0,0,7.452-7.452Zm0,0" transform="translate(0 -259.784)" fill="#838383"/>
      <path id="Trazado_773185" data-name="Trazado 773185" d="M469.646,362.75v10.5a7.452,7.452,0,0,1-7.452,7.452h-9.1a7.452,7.452,0,0,0,7.452-7.452v-10.5Zm0,0" transform="translate(-324.477 -259.781)" fill="#5a5a5a"/>
      <path id="Trazado_773186" data-name="Trazado 773186" d="M145.742,25.423H.57V7.452A7.452,7.452,0,0,1,8.022,0H138.29a7.452,7.452,0,0,1,7.452,7.452Zm0,0" transform="translate(-0.408)" fill="#acacac"/>
      <path id="Trazado_773187" data-name="Trazado 773187" d="M469.809,7.454V25.427h-9.27V7.454A7.452,7.452,0,0,0,453.086,0h9.271A7.452,7.452,0,0,1,469.809,7.454Zm0,0" transform="translate(-324.474 -0.003)" fill="#9c9c9c"/>
      <path id="Trazado_773188" data-name="Trazado 773188" d="M201.059,481.135H134.132a1.461,1.461,0,0,1-1.46-1.46v-4.734a5.813,5.813,0,0,1,5.812-5.812h58.223a5.813,5.813,0,0,1,5.812,5.812v4.734A1.461,1.461,0,0,1,201.059,481.135Zm0,0" transform="translate(-95.012 -335.963)" fill="#838383"/>
      <path id="Trazado_773189" data-name="Trazado 773189" d="M347.385,474.94v4.736a1.461,1.461,0,0,1-1.461,1.46h-5.156v-6.2a5.813,5.813,0,0,0-5.81-5.811h6.617A5.811,5.811,0,0,1,347.385,474.94Zm0,0" transform="translate(-239.877 -335.963)" fill="#5a5a5a"/>
      <g id="Grupo_1046181" data-name="Grupo 1046181" transform="translate(7.6 34.939)">
        <path id="Trazado_773190" data-name="Trazado 773190" d="M35.774,141.088a2.123,2.123,0,0,1-1.506-.623L27.4,133.6a2.128,2.128,0,0,1,0-3.01l6.869-6.869a2.129,2.129,0,1,1,3.012,3.01l-5.364,5.364,5.364,5.364a2.128,2.128,0,0,1-1.506,3.634Zm0,0" transform="translate(-26.775 -123.091)" fill="#838383"/>
        <path id="Trazado_773191" data-name="Trazado 773191" d="M110.963,141.088a2.128,2.128,0,0,1-1.506-3.634l5.364-5.364-5.364-5.364a2.129,2.129,0,1,1,3.012-3.01l6.869,6.869a2.128,2.128,0,0,1,0,3.01l-6.869,6.87A2.123,2.123,0,0,1,110.963,141.088Zm0,0" transform="translate(-85.541 -123.091)" fill="#838383"/>
        <path id="Trazado_773192" data-name="Trazado 773192" d="M73.35,141.087a2.132,2.132,0,0,1-1.981-2.908l5.4-13.739A2.129,2.129,0,1,1,80.729,126l-5.4,13.738A2.129,2.129,0,0,1,73.35,141.087Zm0,0" transform="translate(-58.604 -123.088)" fill="#838383"/>
        <path id="Trazado_773193" data-name="Trazado 773193" d="M48.034,221.039H33.273a2.129,2.129,0,1,1,0-4.258H48.034a2.129,2.129,0,1,1,0,4.258Zm0,0" transform="translate(-29.904 -190.186)" fill="#838383"/>
        <path id="Trazado_773194" data-name="Trazado 773194" d="M139.573,221.039H113.621a2.129,2.129,0,1,1,0-4.258h25.952a2.129,2.129,0,1,1,0,4.258Zm0,0" transform="translate(-87.445 -190.186)" fill="#838383"/>
        <path id="Trazado_773195" data-name="Trazado 773195" d="M39.562,253.594H33.273a2.129,2.129,0,0,1,0-4.258h6.288a2.129,2.129,0,0,1,0,4.258Zm0,0" transform="translate(-29.904 -213.5)" fill="#838383"/>
        <path id="Trazado_773196" data-name="Trazado 773196" d="M180.635,253.594H176.8a2.129,2.129,0,1,1,0-4.258h3.83a2.129,2.129,0,1,1,0,4.258Zm0,0" transform="translate(-132.693 -213.5)" fill="#838383"/>
        <path id="Trazado_773197" data-name="Trazado 773197" d="M101.319,253.594H82.512a2.129,2.129,0,0,1,0-4.258h18.808a2.129,2.129,0,0,1,0,4.258Zm0,0" transform="translate(-65.166 -213.5)" fill="#838383"/>
        <path id="Trazado_773198" data-name="Trazado 773198" d="M221.946,253.594h-7.173a2.129,2.129,0,0,1,0-4.258h7.173a2.129,2.129,0,1,1,0,4.258Zm0,0" transform="translate(-159.884 -213.5)" fill="#838383"/>
        <path id="Trazado_773199" data-name="Trazado 773199" d="M172.581,150.02h-7.565a2.129,2.129,0,0,1,0-4.258h7.565a2.129,2.129,0,0,1,0,4.258Zm0,0" transform="translate(-124.251 -139.326)" fill="#838383"/>
        <path id="Trazado_773200" data-name="Trazado 773200" d="M267.676,150.02h-46.16a2.129,2.129,0,0,1,0-4.258h46.16a2.129,2.129,0,1,1,0,4.258Zm0,0" transform="translate(-164.713 -139.326)" fill="#838383"/>
        <path id="Trazado_773201" data-name="Trazado 773201" d="M312.259,183.984h-18.7a2.129,2.129,0,1,1,0-4.258h18.7a2.129,2.129,0,0,1,0,4.258Zm0,0" transform="translate(-216.309 -163.649)" fill="#838383"/>
        <path id="Trazado_773202" data-name="Trazado 773202" d="M252.643,183.984h-6.428a2.129,2.129,0,1,1,0-4.258h6.428a2.129,2.129,0,1,1,0,4.258Zm0,0" transform="translate(-182.401 -163.649)" fill="#838383"/>
        <path id="Trazado_773203" data-name="Trazado 773203" d="M180.759,183.984H165.012a2.129,2.129,0,0,1,0-4.258h15.747a2.129,2.129,0,1,1,0,4.258Zm0,0" transform="translate(-124.248 -163.649)" fill="#838383"/>
        <path id="Trazado_773204" data-name="Trazado 773204" d="M111.628,285.879H96.867a2.129,2.129,0,1,1,0-4.258h14.761a2.129,2.129,0,0,1,0,4.258Zm0,0" transform="translate(-75.447 -236.62)" fill="#838383"/>
        <path id="Trazado_773205" data-name="Trazado 773205" d="M44.614,285.879H33.273a2.129,2.129,0,1,1,0-4.258H44.614a2.129,2.129,0,1,1,0,4.258Zm0,0" transform="translate(-29.904 -236.62)" fill="#838383"/>
        <path id="Trazado_773206" data-name="Trazado 773206" d="M194.484,285.879H175.2a2.129,2.129,0,1,1,0-4.258h19.281a2.129,2.129,0,1,1,0,4.258Zm0,0" transform="translate(-131.546 -236.62)" fill="#838383"/>
      </g>
      <path id="Trazado_773207" data-name="Trazado 773207" d="M296.664,263.391h47.447v16.068H296.664Zm0,0" transform="translate(-212.454 -188.625)" fill="#64dcfc"/>
      <path id="Trazado_773208" data-name="Trazado 773208" d="M296.664,350.871h47.447v14.9H296.664Zm0,0" transform="translate(-212.454 -251.274)" fill="#64dcfc"/>
      <path id="Trazado_773209" data-name="Trazado 773209" d="M444.051,263.391h5.611v16.068h-5.611Zm0,0" transform="translate(-318.004 -188.625)" fill="#00d1fc"/>
      <path id="Trazado_773210" data-name="Trazado 773210" d="M444.051,350.871h5.611v14.9h-5.611Zm0,0" transform="translate(-318.004 -251.274)" fill="#00d1fc"/>
      <path id="Trazado_773211" data-name="Trazado 773211" d="M332.785,238.135h-55.3a2.118,2.118,0,0,1-2.118-2.118V225.368a2.118,2.118,0,0,1,2.118-2.118h55.3a2.118,2.118,0,0,1,2.118,2.118v10.649A2.118,2.118,0,0,1,332.785,238.135Zm0,0" transform="translate(-197.2 -159.879)" fill="#0396fd"/>
      <path id="Trazado_773212" data-name="Trazado 773212" d="M332.785,322.256h-55.3a2.118,2.118,0,0,1-2.118-2.118V309.489a2.118,2.118,0,0,1,2.118-2.118h55.3a2.118,2.118,0,0,1,2.118,2.118v10.649A2.118,2.118,0,0,1,332.785,322.256Zm0,0" transform="translate(-197.2 -220.122)" fill="#0396fd"/>
      <path id="Trazado_773213" data-name="Trazado 773213" d="M332.785,406.377h-55.3a2.118,2.118,0,0,1-2.118-2.118V393.61a2.118,2.118,0,0,1,2.118-2.118h55.3a2.118,2.118,0,0,1,2.118,2.118v10.649A2.118,2.118,0,0,1,332.785,406.377Zm0,0" transform="translate(-197.2 -280.364)" fill="#0396fd"/>
      <path id="Trazado_773214" data-name="Trazado 773214" d="M467.376,225.368v10.649a2.118,2.118,0,0,1-2.118,2.118h-4.914a2.117,2.117,0,0,0,2.118-2.118V225.368a2.117,2.117,0,0,0-2.118-2.118h4.914A2.118,2.118,0,0,1,467.376,225.368Zm0,0" transform="translate(-329.672 -159.879)" fill="#0077f0"/>
      <path id="Trazado_773215" data-name="Trazado 773215" d="M467.376,309.485v10.649a2.116,2.116,0,0,1-2.118,2.119h-4.914a2.116,2.116,0,0,0,2.118-2.119V309.485a2.117,2.117,0,0,0-2.118-2.118h4.914A2.118,2.118,0,0,1,467.376,309.485Zm0,0" transform="translate(-329.672 -220.119)" fill="#0077f0"/>
      <path id="Trazado_773216" data-name="Trazado 773216" d="M467.376,393.614v10.649a2.118,2.118,0,0,1-2.118,2.118h-4.914a2.117,2.117,0,0,0,2.118-2.118V393.614a2.116,2.116,0,0,0-2.118-2.118h4.914A2.116,2.116,0,0,1,467.376,393.614Zm0,0" transform="translate(-329.672 -280.367)" fill="#0077f0"/>
      <path id="Trazado_773217" data-name="Trazado 773217" d="M308.391,246.227H297.848a2.129,2.129,0,0,1,0-4.258h10.545a2.129,2.129,0,1,1,0,4.258Zm0,0" transform="translate(-211.777 -173.284)" fill="#e7e7e7"/>
      <path id="Trazado_773218" data-name="Trazado 773218" d="M414.335,246.227H399.449a2.129,2.129,0,1,1,0-4.258h14.885a2.129,2.129,0,0,1,0,4.258Zm0,0" transform="translate(-284.538 -173.284)" fill="#e7e7e7"/>
      <path id="Trazado_773219" data-name="Trazado 773219" d="M364.623,246.227h-3.412a2.129,2.129,0,0,1,0-4.258h3.412a2.129,2.129,0,1,1,0,4.258Zm0,0" transform="translate(-257.154 -173.284)" fill="#e7e7e7"/>
      <path id="Trazado_773220" data-name="Trazado 773220" d="M308.391,330.348H297.848a2.129,2.129,0,0,1,0-4.258h10.545a2.129,2.129,0,1,1,0,4.258Zm0,0" transform="translate(-211.777 -233.527)" fill="#e7e7e7"/>
      <path id="Trazado_773221" data-name="Trazado 773221" d="M414.335,330.348H399.449a2.129,2.129,0,0,1,0-4.258h14.885a2.129,2.129,0,0,1,0,4.258Zm0,0" transform="translate(-284.538 -233.527)" fill="#e7e7e7"/>
      <path id="Trazado_773222" data-name="Trazado 773222" d="M364.623,330.348h-3.412a2.129,2.129,0,0,1,0-4.258h3.412a2.129,2.129,0,0,1,0,4.258Zm0,0" transform="translate(-257.154 -233.527)" fill="#e7e7e7"/>
      <path id="Trazado_773223" data-name="Trazado 773223" d="M308.391,414.469H297.848a2.129,2.129,0,0,1,0-4.258h10.545a2.129,2.129,0,1,1,0,4.258Zm0,0" transform="translate(-211.777 -293.77)" fill="#e7e7e7"/>
      <path id="Trazado_773224" data-name="Trazado 773224" d="M414.335,414.469H399.449a2.129,2.129,0,0,1,0-4.258h14.885a2.129,2.129,0,0,1,0,4.258Zm0,0" transform="translate(-284.538 -293.77)" fill="#e7e7e7"/>
      <path id="Trazado_773225" data-name="Trazado 773225" d="M364.623,414.469h-3.412a2.129,2.129,0,0,1,0-4.258h3.412a2.129,2.129,0,0,1,0,4.258Zm0,0" transform="translate(-257.154 -293.77)" fill="#e7e7e7"/>
      <path id="Trazado_773226" data-name="Trazado 773226" d="M42.753,33.868a4.24,4.24,0,1,1-4.239-4.239A4.239,4.239,0,0,1,42.753,33.868Zm0,0" transform="translate(-24.545 -21.219)" fill="#ff5770"/>
      <path id="Trazado_773227" data-name="Trazado 773227" d="M100.427,33.868a4.239,4.239,0,1,1-4.239-4.239A4.238,4.238,0,0,1,100.427,33.868Zm0,0" transform="translate(-65.849 -21.219)" fill="#ffd86e"/>
      <path id="Trazado_773228" data-name="Trazado 773228" d="M158.1,33.868a4.239,4.239,0,1,1-4.239-4.239A4.239,4.239,0,0,1,158.1,33.868Zm0,0" transform="translate(-107.153 -21.219)" fill="#80e0dc"/>
      <path id="Trazado_773229" data-name="Trazado 773229" d="M46.071,33.872a4.236,4.236,0,0,1-7.161,3.065,4.234,4.234,0,0,0,2.825-7.3c.032,0,.068,0,.1,0A4.236,4.236,0,0,1,46.071,33.872Zm0,0" transform="translate(-27.865 -21.221)" fill="#ff435f"/>
      <path id="Trazado_773230" data-name="Trazado 773230" d="M103.741,33.872a4.237,4.237,0,0,1-7.163,3.065,4.235,4.235,0,0,0,2.829-7.3.914.914,0,0,1,.1,0A4.236,4.236,0,0,1,103.741,33.872Zm0,0" transform="translate(-69.164 -21.221)" fill="#ffb509"/>
      <path id="Trazado_773231" data-name="Trazado 773231" d="M161.418,33.872a4.238,4.238,0,0,1-7.164,3.065,4.234,4.234,0,0,0,2.825-7.3c.032,0,.068,0,.1,0A4.239,4.239,0,0,1,161.418,33.872Zm0,0" transform="translate(-110.468 -21.221)" fill="#00a8b0"/>
    </g>
  </g>
</svg>
